%TF.GenerationSoftware,KiCad,Pcbnew,8.0.5*%
%TF.CreationDate,2025-01-31T12:13:52-06:00*%
%TF.ProjectId,DRAG_SUBSCALE_WIRING,44524147-5f53-4554-9253-43414c455f57,rev?*%
%TF.SameCoordinates,Original*%
%TF.FileFunction,Legend,Top*%
%TF.FilePolarity,Positive*%
%FSLAX46Y46*%
G04 Gerber Fmt 4.6, Leading zero omitted, Abs format (unit mm)*
G04 Created by KiCad (PCBNEW 8.0.5) date 2025-01-31 12:13:52*
%MOMM*%
%LPD*%
G01*
G04 APERTURE LIST*
%ADD10C,0.300000*%
%ADD11C,0.100000*%
%ADD12C,0.150000*%
%ADD13C,0.120000*%
%ADD14C,0.000000*%
%TA.AperFunction,Profile*%
%ADD15C,0.050000*%
%TD*%
G04 APERTURE END LIST*
D10*
X188554510Y-64729400D02*
X189697368Y-64729400D01*
X189125939Y-65300828D02*
X189125939Y-64157971D01*
X191554510Y-64729400D02*
X192697368Y-64729400D01*
D11*
X143347468Y-82803884D02*
X144347468Y-82803884D01*
X144347468Y-82803884D02*
X144347468Y-83041979D01*
X144347468Y-83041979D02*
X144299849Y-83184836D01*
X144299849Y-83184836D02*
X144204611Y-83280074D01*
X144204611Y-83280074D02*
X144109373Y-83327693D01*
X144109373Y-83327693D02*
X143918897Y-83375312D01*
X143918897Y-83375312D02*
X143776040Y-83375312D01*
X143776040Y-83375312D02*
X143585564Y-83327693D01*
X143585564Y-83327693D02*
X143490326Y-83280074D01*
X143490326Y-83280074D02*
X143395088Y-83184836D01*
X143395088Y-83184836D02*
X143347468Y-83041979D01*
X143347468Y-83041979D02*
X143347468Y-82803884D01*
X143347468Y-84375312D02*
X143823659Y-84041979D01*
X143347468Y-83803884D02*
X144347468Y-83803884D01*
X144347468Y-83803884D02*
X144347468Y-84184836D01*
X144347468Y-84184836D02*
X144299849Y-84280074D01*
X144299849Y-84280074D02*
X144252230Y-84327693D01*
X144252230Y-84327693D02*
X144156992Y-84375312D01*
X144156992Y-84375312D02*
X144014135Y-84375312D01*
X144014135Y-84375312D02*
X143918897Y-84327693D01*
X143918897Y-84327693D02*
X143871278Y-84280074D01*
X143871278Y-84280074D02*
X143823659Y-84184836D01*
X143823659Y-84184836D02*
X143823659Y-83803884D01*
X143633183Y-84756265D02*
X143633183Y-85232455D01*
X143347468Y-84661027D02*
X144347468Y-84994360D01*
X144347468Y-84994360D02*
X143347468Y-85327693D01*
X144299849Y-86184836D02*
X144347468Y-86089598D01*
X144347468Y-86089598D02*
X144347468Y-85946741D01*
X144347468Y-85946741D02*
X144299849Y-85803884D01*
X144299849Y-85803884D02*
X144204611Y-85708646D01*
X144204611Y-85708646D02*
X144109373Y-85661027D01*
X144109373Y-85661027D02*
X143918897Y-85613408D01*
X143918897Y-85613408D02*
X143776040Y-85613408D01*
X143776040Y-85613408D02*
X143585564Y-85661027D01*
X143585564Y-85661027D02*
X143490326Y-85708646D01*
X143490326Y-85708646D02*
X143395088Y-85803884D01*
X143395088Y-85803884D02*
X143347468Y-85946741D01*
X143347468Y-85946741D02*
X143347468Y-86041979D01*
X143347468Y-86041979D02*
X143395088Y-86184836D01*
X143395088Y-86184836D02*
X143442707Y-86232455D01*
X143442707Y-86232455D02*
X143776040Y-86232455D01*
X143776040Y-86232455D02*
X143776040Y-86041979D01*
X143442707Y-87994360D02*
X143395088Y-87946741D01*
X143395088Y-87946741D02*
X143347468Y-87803884D01*
X143347468Y-87803884D02*
X143347468Y-87708646D01*
X143347468Y-87708646D02*
X143395088Y-87565789D01*
X143395088Y-87565789D02*
X143490326Y-87470551D01*
X143490326Y-87470551D02*
X143585564Y-87422932D01*
X143585564Y-87422932D02*
X143776040Y-87375313D01*
X143776040Y-87375313D02*
X143918897Y-87375313D01*
X143918897Y-87375313D02*
X144109373Y-87422932D01*
X144109373Y-87422932D02*
X144204611Y-87470551D01*
X144204611Y-87470551D02*
X144299849Y-87565789D01*
X144299849Y-87565789D02*
X144347468Y-87708646D01*
X144347468Y-87708646D02*
X144347468Y-87803884D01*
X144347468Y-87803884D02*
X144299849Y-87946741D01*
X144299849Y-87946741D02*
X144252230Y-87994360D01*
X143347468Y-88565789D02*
X143395088Y-88470551D01*
X143395088Y-88470551D02*
X143442707Y-88422932D01*
X143442707Y-88422932D02*
X143537945Y-88375313D01*
X143537945Y-88375313D02*
X143823659Y-88375313D01*
X143823659Y-88375313D02*
X143918897Y-88422932D01*
X143918897Y-88422932D02*
X143966516Y-88470551D01*
X143966516Y-88470551D02*
X144014135Y-88565789D01*
X144014135Y-88565789D02*
X144014135Y-88708646D01*
X144014135Y-88708646D02*
X143966516Y-88803884D01*
X143966516Y-88803884D02*
X143918897Y-88851503D01*
X143918897Y-88851503D02*
X143823659Y-88899122D01*
X143823659Y-88899122D02*
X143537945Y-88899122D01*
X143537945Y-88899122D02*
X143442707Y-88851503D01*
X143442707Y-88851503D02*
X143395088Y-88803884D01*
X143395088Y-88803884D02*
X143347468Y-88708646D01*
X143347468Y-88708646D02*
X143347468Y-88565789D01*
X144014135Y-89327694D02*
X143347468Y-89327694D01*
X143918897Y-89327694D02*
X143966516Y-89375313D01*
X143966516Y-89375313D02*
X144014135Y-89470551D01*
X144014135Y-89470551D02*
X144014135Y-89613408D01*
X144014135Y-89613408D02*
X143966516Y-89708646D01*
X143966516Y-89708646D02*
X143871278Y-89756265D01*
X143871278Y-89756265D02*
X143347468Y-89756265D01*
X144014135Y-90089599D02*
X144014135Y-90470551D01*
X144347468Y-90232456D02*
X143490326Y-90232456D01*
X143490326Y-90232456D02*
X143395088Y-90280075D01*
X143395088Y-90280075D02*
X143347468Y-90375313D01*
X143347468Y-90375313D02*
X143347468Y-90470551D01*
X143347468Y-90803885D02*
X144014135Y-90803885D01*
X143823659Y-90803885D02*
X143918897Y-90851504D01*
X143918897Y-90851504D02*
X143966516Y-90899123D01*
X143966516Y-90899123D02*
X144014135Y-90994361D01*
X144014135Y-90994361D02*
X144014135Y-91089599D01*
X143347468Y-91565790D02*
X143395088Y-91470552D01*
X143395088Y-91470552D02*
X143442707Y-91422933D01*
X143442707Y-91422933D02*
X143537945Y-91375314D01*
X143537945Y-91375314D02*
X143823659Y-91375314D01*
X143823659Y-91375314D02*
X143918897Y-91422933D01*
X143918897Y-91422933D02*
X143966516Y-91470552D01*
X143966516Y-91470552D02*
X144014135Y-91565790D01*
X144014135Y-91565790D02*
X144014135Y-91708647D01*
X144014135Y-91708647D02*
X143966516Y-91803885D01*
X143966516Y-91803885D02*
X143918897Y-91851504D01*
X143918897Y-91851504D02*
X143823659Y-91899123D01*
X143823659Y-91899123D02*
X143537945Y-91899123D01*
X143537945Y-91899123D02*
X143442707Y-91851504D01*
X143442707Y-91851504D02*
X143395088Y-91803885D01*
X143395088Y-91803885D02*
X143347468Y-91708647D01*
X143347468Y-91708647D02*
X143347468Y-91565790D01*
X143347468Y-92470552D02*
X143395088Y-92375314D01*
X143395088Y-92375314D02*
X143490326Y-92327695D01*
X143490326Y-92327695D02*
X144347468Y-92327695D01*
X143871278Y-93946743D02*
X143823659Y-94089600D01*
X143823659Y-94089600D02*
X143776040Y-94137219D01*
X143776040Y-94137219D02*
X143680802Y-94184838D01*
X143680802Y-94184838D02*
X143537945Y-94184838D01*
X143537945Y-94184838D02*
X143442707Y-94137219D01*
X143442707Y-94137219D02*
X143395088Y-94089600D01*
X143395088Y-94089600D02*
X143347468Y-93994362D01*
X143347468Y-93994362D02*
X143347468Y-93613410D01*
X143347468Y-93613410D02*
X144347468Y-93613410D01*
X144347468Y-93613410D02*
X144347468Y-93946743D01*
X144347468Y-93946743D02*
X144299849Y-94041981D01*
X144299849Y-94041981D02*
X144252230Y-94089600D01*
X144252230Y-94089600D02*
X144156992Y-94137219D01*
X144156992Y-94137219D02*
X144061754Y-94137219D01*
X144061754Y-94137219D02*
X143966516Y-94089600D01*
X143966516Y-94089600D02*
X143918897Y-94041981D01*
X143918897Y-94041981D02*
X143871278Y-93946743D01*
X143871278Y-93946743D02*
X143871278Y-93613410D01*
X143347468Y-94756267D02*
X143395088Y-94661029D01*
X143395088Y-94661029D02*
X143442707Y-94613410D01*
X143442707Y-94613410D02*
X143537945Y-94565791D01*
X143537945Y-94565791D02*
X143823659Y-94565791D01*
X143823659Y-94565791D02*
X143918897Y-94613410D01*
X143918897Y-94613410D02*
X143966516Y-94661029D01*
X143966516Y-94661029D02*
X144014135Y-94756267D01*
X144014135Y-94756267D02*
X144014135Y-94899124D01*
X144014135Y-94899124D02*
X143966516Y-94994362D01*
X143966516Y-94994362D02*
X143918897Y-95041981D01*
X143918897Y-95041981D02*
X143823659Y-95089600D01*
X143823659Y-95089600D02*
X143537945Y-95089600D01*
X143537945Y-95089600D02*
X143442707Y-95041981D01*
X143442707Y-95041981D02*
X143395088Y-94994362D01*
X143395088Y-94994362D02*
X143347468Y-94899124D01*
X143347468Y-94899124D02*
X143347468Y-94756267D01*
X143347468Y-95946743D02*
X143871278Y-95946743D01*
X143871278Y-95946743D02*
X143966516Y-95899124D01*
X143966516Y-95899124D02*
X144014135Y-95803886D01*
X144014135Y-95803886D02*
X144014135Y-95613410D01*
X144014135Y-95613410D02*
X143966516Y-95518172D01*
X143395088Y-95946743D02*
X143347468Y-95851505D01*
X143347468Y-95851505D02*
X143347468Y-95613410D01*
X143347468Y-95613410D02*
X143395088Y-95518172D01*
X143395088Y-95518172D02*
X143490326Y-95470553D01*
X143490326Y-95470553D02*
X143585564Y-95470553D01*
X143585564Y-95470553D02*
X143680802Y-95518172D01*
X143680802Y-95518172D02*
X143728421Y-95613410D01*
X143728421Y-95613410D02*
X143728421Y-95851505D01*
X143728421Y-95851505D02*
X143776040Y-95946743D01*
X143347468Y-96422934D02*
X144014135Y-96422934D01*
X143823659Y-96422934D02*
X143918897Y-96470553D01*
X143918897Y-96470553D02*
X143966516Y-96518172D01*
X143966516Y-96518172D02*
X144014135Y-96613410D01*
X144014135Y-96613410D02*
X144014135Y-96708648D01*
X143347468Y-97470553D02*
X144347468Y-97470553D01*
X143395088Y-97470553D02*
X143347468Y-97375315D01*
X143347468Y-97375315D02*
X143347468Y-97184839D01*
X143347468Y-97184839D02*
X143395088Y-97089601D01*
X143395088Y-97089601D02*
X143442707Y-97041982D01*
X143442707Y-97041982D02*
X143537945Y-96994363D01*
X143537945Y-96994363D02*
X143823659Y-96994363D01*
X143823659Y-96994363D02*
X143918897Y-97041982D01*
X143918897Y-97041982D02*
X143966516Y-97089601D01*
X143966516Y-97089601D02*
X144014135Y-97184839D01*
X144014135Y-97184839D02*
X144014135Y-97375315D01*
X144014135Y-97375315D02*
X143966516Y-97470553D01*
X141737524Y-82803884D02*
X142737524Y-82803884D01*
X142261334Y-82803884D02*
X142261334Y-83375312D01*
X141737524Y-83375312D02*
X142737524Y-83375312D01*
X141737524Y-84280074D02*
X142261334Y-84280074D01*
X142261334Y-84280074D02*
X142356572Y-84232455D01*
X142356572Y-84232455D02*
X142404191Y-84137217D01*
X142404191Y-84137217D02*
X142404191Y-83946741D01*
X142404191Y-83946741D02*
X142356572Y-83851503D01*
X141785144Y-84280074D02*
X141737524Y-84184836D01*
X141737524Y-84184836D02*
X141737524Y-83946741D01*
X141737524Y-83946741D02*
X141785144Y-83851503D01*
X141785144Y-83851503D02*
X141880382Y-83803884D01*
X141880382Y-83803884D02*
X141975620Y-83803884D01*
X141975620Y-83803884D02*
X142070858Y-83851503D01*
X142070858Y-83851503D02*
X142118477Y-83946741D01*
X142118477Y-83946741D02*
X142118477Y-84184836D01*
X142118477Y-84184836D02*
X142166096Y-84280074D01*
X141737524Y-84756265D02*
X142404191Y-84756265D01*
X142213715Y-84756265D02*
X142308953Y-84803884D01*
X142308953Y-84803884D02*
X142356572Y-84851503D01*
X142356572Y-84851503D02*
X142404191Y-84946741D01*
X142404191Y-84946741D02*
X142404191Y-85041979D01*
X141737524Y-85375313D02*
X142404191Y-85375313D01*
X142213715Y-85375313D02*
X142308953Y-85422932D01*
X142308953Y-85422932D02*
X142356572Y-85470551D01*
X142356572Y-85470551D02*
X142404191Y-85565789D01*
X142404191Y-85565789D02*
X142404191Y-85661027D01*
X141737524Y-85994361D02*
X142404191Y-85994361D01*
X142737524Y-85994361D02*
X142689905Y-85946742D01*
X142689905Y-85946742D02*
X142642286Y-85994361D01*
X142642286Y-85994361D02*
X142689905Y-86041980D01*
X142689905Y-86041980D02*
X142737524Y-85994361D01*
X142737524Y-85994361D02*
X142642286Y-85994361D01*
X141785144Y-86422932D02*
X141737524Y-86518170D01*
X141737524Y-86518170D02*
X141737524Y-86708646D01*
X141737524Y-86708646D02*
X141785144Y-86803884D01*
X141785144Y-86803884D02*
X141880382Y-86851503D01*
X141880382Y-86851503D02*
X141928001Y-86851503D01*
X141928001Y-86851503D02*
X142023239Y-86803884D01*
X142023239Y-86803884D02*
X142070858Y-86708646D01*
X142070858Y-86708646D02*
X142070858Y-86565789D01*
X142070858Y-86565789D02*
X142118477Y-86470551D01*
X142118477Y-86470551D02*
X142213715Y-86422932D01*
X142213715Y-86422932D02*
X142261334Y-86422932D01*
X142261334Y-86422932D02*
X142356572Y-86470551D01*
X142356572Y-86470551D02*
X142404191Y-86565789D01*
X142404191Y-86565789D02*
X142404191Y-86708646D01*
X142404191Y-86708646D02*
X142356572Y-86803884D01*
X141737524Y-87422932D02*
X141785144Y-87327694D01*
X141785144Y-87327694D02*
X141832763Y-87280075D01*
X141832763Y-87280075D02*
X141928001Y-87232456D01*
X141928001Y-87232456D02*
X142213715Y-87232456D01*
X142213715Y-87232456D02*
X142308953Y-87280075D01*
X142308953Y-87280075D02*
X142356572Y-87327694D01*
X142356572Y-87327694D02*
X142404191Y-87422932D01*
X142404191Y-87422932D02*
X142404191Y-87565789D01*
X142404191Y-87565789D02*
X142356572Y-87661027D01*
X142356572Y-87661027D02*
X142308953Y-87708646D01*
X142308953Y-87708646D02*
X142213715Y-87756265D01*
X142213715Y-87756265D02*
X141928001Y-87756265D01*
X141928001Y-87756265D02*
X141832763Y-87708646D01*
X141832763Y-87708646D02*
X141785144Y-87661027D01*
X141785144Y-87661027D02*
X141737524Y-87565789D01*
X141737524Y-87565789D02*
X141737524Y-87422932D01*
X142404191Y-88184837D02*
X141737524Y-88184837D01*
X142308953Y-88184837D02*
X142356572Y-88232456D01*
X142356572Y-88232456D02*
X142404191Y-88327694D01*
X142404191Y-88327694D02*
X142404191Y-88470551D01*
X142404191Y-88470551D02*
X142356572Y-88565789D01*
X142356572Y-88565789D02*
X142261334Y-88613408D01*
X142261334Y-88613408D02*
X141737524Y-88613408D01*
X142261334Y-90184837D02*
X142213715Y-90327694D01*
X142213715Y-90327694D02*
X142166096Y-90375313D01*
X142166096Y-90375313D02*
X142070858Y-90422932D01*
X142070858Y-90422932D02*
X141928001Y-90422932D01*
X141928001Y-90422932D02*
X141832763Y-90375313D01*
X141832763Y-90375313D02*
X141785144Y-90327694D01*
X141785144Y-90327694D02*
X141737524Y-90232456D01*
X141737524Y-90232456D02*
X141737524Y-89851504D01*
X141737524Y-89851504D02*
X142737524Y-89851504D01*
X142737524Y-89851504D02*
X142737524Y-90184837D01*
X142737524Y-90184837D02*
X142689905Y-90280075D01*
X142689905Y-90280075D02*
X142642286Y-90327694D01*
X142642286Y-90327694D02*
X142547048Y-90375313D01*
X142547048Y-90375313D02*
X142451810Y-90375313D01*
X142451810Y-90375313D02*
X142356572Y-90327694D01*
X142356572Y-90327694D02*
X142308953Y-90280075D01*
X142308953Y-90280075D02*
X142261334Y-90184837D01*
X142261334Y-90184837D02*
X142261334Y-89851504D01*
X141737524Y-90994361D02*
X141785144Y-90899123D01*
X141785144Y-90899123D02*
X141832763Y-90851504D01*
X141832763Y-90851504D02*
X141928001Y-90803885D01*
X141928001Y-90803885D02*
X142213715Y-90803885D01*
X142213715Y-90803885D02*
X142308953Y-90851504D01*
X142308953Y-90851504D02*
X142356572Y-90899123D01*
X142356572Y-90899123D02*
X142404191Y-90994361D01*
X142404191Y-90994361D02*
X142404191Y-91137218D01*
X142404191Y-91137218D02*
X142356572Y-91232456D01*
X142356572Y-91232456D02*
X142308953Y-91280075D01*
X142308953Y-91280075D02*
X142213715Y-91327694D01*
X142213715Y-91327694D02*
X141928001Y-91327694D01*
X141928001Y-91327694D02*
X141832763Y-91280075D01*
X141832763Y-91280075D02*
X141785144Y-91232456D01*
X141785144Y-91232456D02*
X141737524Y-91137218D01*
X141737524Y-91137218D02*
X141737524Y-90994361D01*
X142404191Y-91756266D02*
X141737524Y-91756266D01*
X142308953Y-91756266D02*
X142356572Y-91803885D01*
X142356572Y-91803885D02*
X142404191Y-91899123D01*
X142404191Y-91899123D02*
X142404191Y-92041980D01*
X142404191Y-92041980D02*
X142356572Y-92137218D01*
X142356572Y-92137218D02*
X142261334Y-92184837D01*
X142261334Y-92184837D02*
X141737524Y-92184837D01*
X142404191Y-92661028D02*
X141737524Y-92661028D01*
X142308953Y-92661028D02*
X142356572Y-92708647D01*
X142356572Y-92708647D02*
X142404191Y-92803885D01*
X142404191Y-92803885D02*
X142404191Y-92946742D01*
X142404191Y-92946742D02*
X142356572Y-93041980D01*
X142356572Y-93041980D02*
X142261334Y-93089599D01*
X142261334Y-93089599D02*
X141737524Y-93089599D01*
X141785144Y-93946742D02*
X141737524Y-93851504D01*
X141737524Y-93851504D02*
X141737524Y-93661028D01*
X141737524Y-93661028D02*
X141785144Y-93565790D01*
X141785144Y-93565790D02*
X141880382Y-93518171D01*
X141880382Y-93518171D02*
X142261334Y-93518171D01*
X142261334Y-93518171D02*
X142356572Y-93565790D01*
X142356572Y-93565790D02*
X142404191Y-93661028D01*
X142404191Y-93661028D02*
X142404191Y-93851504D01*
X142404191Y-93851504D02*
X142356572Y-93946742D01*
X142356572Y-93946742D02*
X142261334Y-93994361D01*
X142261334Y-93994361D02*
X142166096Y-93994361D01*
X142166096Y-93994361D02*
X142070858Y-93518171D01*
X141737524Y-94422933D02*
X142404191Y-94422933D01*
X142213715Y-94422933D02*
X142308953Y-94470552D01*
X142308953Y-94470552D02*
X142356572Y-94518171D01*
X142356572Y-94518171D02*
X142404191Y-94613409D01*
X142404191Y-94613409D02*
X142404191Y-94708647D01*
X140413295Y-82756265D02*
X140413295Y-83232455D01*
X140127580Y-82661027D02*
X141127580Y-82994360D01*
X141127580Y-82994360D02*
X140127580Y-83327693D01*
X141127580Y-83661027D02*
X140318057Y-83661027D01*
X140318057Y-83661027D02*
X140222819Y-83708646D01*
X140222819Y-83708646D02*
X140175200Y-83756265D01*
X140175200Y-83756265D02*
X140127580Y-83851503D01*
X140127580Y-83851503D02*
X140127580Y-84041979D01*
X140127580Y-84041979D02*
X140175200Y-84137217D01*
X140175200Y-84137217D02*
X140222819Y-84184836D01*
X140222819Y-84184836D02*
X140318057Y-84232455D01*
X140318057Y-84232455D02*
X141127580Y-84232455D01*
X140127580Y-85280074D02*
X140603771Y-84946741D01*
X140127580Y-84708646D02*
X141127580Y-84708646D01*
X141127580Y-84708646D02*
X141127580Y-85089598D01*
X141127580Y-85089598D02*
X141079961Y-85184836D01*
X141079961Y-85184836D02*
X141032342Y-85232455D01*
X141032342Y-85232455D02*
X140937104Y-85280074D01*
X140937104Y-85280074D02*
X140794247Y-85280074D01*
X140794247Y-85280074D02*
X140699009Y-85232455D01*
X140699009Y-85232455D02*
X140651390Y-85184836D01*
X140651390Y-85184836D02*
X140603771Y-85089598D01*
X140603771Y-85089598D02*
X140603771Y-84708646D01*
X140413295Y-85661027D02*
X140413295Y-86137217D01*
X140127580Y-85565789D02*
X141127580Y-85899122D01*
X141127580Y-85899122D02*
X140127580Y-86232455D01*
X141032342Y-87280075D02*
X141079961Y-87327694D01*
X141079961Y-87327694D02*
X141127580Y-87422932D01*
X141127580Y-87422932D02*
X141127580Y-87661027D01*
X141127580Y-87661027D02*
X141079961Y-87756265D01*
X141079961Y-87756265D02*
X141032342Y-87803884D01*
X141032342Y-87803884D02*
X140937104Y-87851503D01*
X140937104Y-87851503D02*
X140841866Y-87851503D01*
X140841866Y-87851503D02*
X140699009Y-87803884D01*
X140699009Y-87803884D02*
X140127580Y-87232456D01*
X140127580Y-87232456D02*
X140127580Y-87851503D01*
X140794247Y-88708646D02*
X140127580Y-88708646D01*
X141175200Y-88470551D02*
X140460914Y-88232456D01*
X140460914Y-88232456D02*
X140460914Y-88851503D01*
X140508533Y-89232456D02*
X140508533Y-89994361D01*
X141032342Y-90422932D02*
X141079961Y-90470551D01*
X141079961Y-90470551D02*
X141127580Y-90565789D01*
X141127580Y-90565789D02*
X141127580Y-90803884D01*
X141127580Y-90803884D02*
X141079961Y-90899122D01*
X141079961Y-90899122D02*
X141032342Y-90946741D01*
X141032342Y-90946741D02*
X140937104Y-90994360D01*
X140937104Y-90994360D02*
X140841866Y-90994360D01*
X140841866Y-90994360D02*
X140699009Y-90946741D01*
X140699009Y-90946741D02*
X140127580Y-90375313D01*
X140127580Y-90375313D02*
X140127580Y-90994360D01*
X141127580Y-91899122D02*
X141127580Y-91422932D01*
X141127580Y-91422932D02*
X140651390Y-91375313D01*
X140651390Y-91375313D02*
X140699009Y-91422932D01*
X140699009Y-91422932D02*
X140746628Y-91518170D01*
X140746628Y-91518170D02*
X140746628Y-91756265D01*
X140746628Y-91756265D02*
X140699009Y-91851503D01*
X140699009Y-91851503D02*
X140651390Y-91899122D01*
X140651390Y-91899122D02*
X140556152Y-91946741D01*
X140556152Y-91946741D02*
X140318057Y-91946741D01*
X140318057Y-91946741D02*
X140222819Y-91899122D01*
X140222819Y-91899122D02*
X140175200Y-91851503D01*
X140175200Y-91851503D02*
X140127580Y-91756265D01*
X140127580Y-91756265D02*
X140127580Y-91518170D01*
X140127580Y-91518170D02*
X140175200Y-91422932D01*
X140175200Y-91422932D02*
X140222819Y-91375313D01*
X213848609Y-105362782D02*
X213896228Y-105219925D01*
X213896228Y-105219925D02*
X213943847Y-105172306D01*
X213943847Y-105172306D02*
X214039085Y-105124687D01*
X214039085Y-105124687D02*
X214181942Y-105124687D01*
X214181942Y-105124687D02*
X214277180Y-105172306D01*
X214277180Y-105172306D02*
X214324800Y-105219925D01*
X214324800Y-105219925D02*
X214372419Y-105315163D01*
X214372419Y-105315163D02*
X214372419Y-105696115D01*
X214372419Y-105696115D02*
X213372419Y-105696115D01*
X213372419Y-105696115D02*
X213372419Y-105362782D01*
X213372419Y-105362782D02*
X213420038Y-105267544D01*
X213420038Y-105267544D02*
X213467657Y-105219925D01*
X213467657Y-105219925D02*
X213562895Y-105172306D01*
X213562895Y-105172306D02*
X213658133Y-105172306D01*
X213658133Y-105172306D02*
X213753371Y-105219925D01*
X213753371Y-105219925D02*
X213800990Y-105267544D01*
X213800990Y-105267544D02*
X213848609Y-105362782D01*
X213848609Y-105362782D02*
X213848609Y-105696115D01*
X214372419Y-104267544D02*
X213848609Y-104267544D01*
X213848609Y-104267544D02*
X213753371Y-104315163D01*
X213753371Y-104315163D02*
X213705752Y-104410401D01*
X213705752Y-104410401D02*
X213705752Y-104600877D01*
X213705752Y-104600877D02*
X213753371Y-104696115D01*
X214324800Y-104267544D02*
X214372419Y-104362782D01*
X214372419Y-104362782D02*
X214372419Y-104600877D01*
X214372419Y-104600877D02*
X214324800Y-104696115D01*
X214324800Y-104696115D02*
X214229561Y-104743734D01*
X214229561Y-104743734D02*
X214134323Y-104743734D01*
X214134323Y-104743734D02*
X214039085Y-104696115D01*
X214039085Y-104696115D02*
X213991466Y-104600877D01*
X213991466Y-104600877D02*
X213991466Y-104362782D01*
X213991466Y-104362782D02*
X213943847Y-104267544D01*
X213705752Y-103934210D02*
X213705752Y-103553258D01*
X213372419Y-103791353D02*
X214229561Y-103791353D01*
X214229561Y-103791353D02*
X214324800Y-103743734D01*
X214324800Y-103743734D02*
X214372419Y-103648496D01*
X214372419Y-103648496D02*
X214372419Y-103553258D01*
X213705752Y-103362781D02*
X213705752Y-102981829D01*
X213372419Y-103219924D02*
X214229561Y-103219924D01*
X214229561Y-103219924D02*
X214324800Y-103172305D01*
X214324800Y-103172305D02*
X214372419Y-103077067D01*
X214372419Y-103077067D02*
X214372419Y-102981829D01*
X214324800Y-102267543D02*
X214372419Y-102362781D01*
X214372419Y-102362781D02*
X214372419Y-102553257D01*
X214372419Y-102553257D02*
X214324800Y-102648495D01*
X214324800Y-102648495D02*
X214229561Y-102696114D01*
X214229561Y-102696114D02*
X213848609Y-102696114D01*
X213848609Y-102696114D02*
X213753371Y-102648495D01*
X213753371Y-102648495D02*
X213705752Y-102553257D01*
X213705752Y-102553257D02*
X213705752Y-102362781D01*
X213705752Y-102362781D02*
X213753371Y-102267543D01*
X213753371Y-102267543D02*
X213848609Y-102219924D01*
X213848609Y-102219924D02*
X213943847Y-102219924D01*
X213943847Y-102219924D02*
X214039085Y-102696114D01*
X214372419Y-101791352D02*
X213705752Y-101791352D01*
X213896228Y-101791352D02*
X213800990Y-101743733D01*
X213800990Y-101743733D02*
X213753371Y-101696114D01*
X213753371Y-101696114D02*
X213705752Y-101600876D01*
X213705752Y-101600876D02*
X213705752Y-101505638D01*
X213705752Y-101267542D02*
X214372419Y-101029447D01*
X213705752Y-100791352D02*
X214372419Y-101029447D01*
X214372419Y-101029447D02*
X214610514Y-101124685D01*
X214610514Y-101124685D02*
X214658133Y-101172304D01*
X214658133Y-101172304D02*
X214705752Y-101267542D01*
D10*
X184483082Y-75229400D02*
X184697368Y-75300828D01*
X184697368Y-75300828D02*
X185054510Y-75300828D01*
X185054510Y-75300828D02*
X185197368Y-75229400D01*
X185197368Y-75229400D02*
X185268796Y-75157971D01*
X185268796Y-75157971D02*
X185340225Y-75015114D01*
X185340225Y-75015114D02*
X185340225Y-74872257D01*
X185340225Y-74872257D02*
X185268796Y-74729400D01*
X185268796Y-74729400D02*
X185197368Y-74657971D01*
X185197368Y-74657971D02*
X185054510Y-74586542D01*
X185054510Y-74586542D02*
X184768796Y-74515114D01*
X184768796Y-74515114D02*
X184625939Y-74443685D01*
X184625939Y-74443685D02*
X184554510Y-74372257D01*
X184554510Y-74372257D02*
X184483082Y-74229400D01*
X184483082Y-74229400D02*
X184483082Y-74086542D01*
X184483082Y-74086542D02*
X184554510Y-73943685D01*
X184554510Y-73943685D02*
X184625939Y-73872257D01*
X184625939Y-73872257D02*
X184768796Y-73800828D01*
X184768796Y-73800828D02*
X185125939Y-73800828D01*
X185125939Y-73800828D02*
X185340225Y-73872257D01*
X186554510Y-75229400D02*
X186411653Y-75300828D01*
X186411653Y-75300828D02*
X186125939Y-75300828D01*
X186125939Y-75300828D02*
X185983081Y-75229400D01*
X185983081Y-75229400D02*
X185911653Y-75086542D01*
X185911653Y-75086542D02*
X185911653Y-74515114D01*
X185911653Y-74515114D02*
X185983081Y-74372257D01*
X185983081Y-74372257D02*
X186125939Y-74300828D01*
X186125939Y-74300828D02*
X186411653Y-74300828D01*
X186411653Y-74300828D02*
X186554510Y-74372257D01*
X186554510Y-74372257D02*
X186625939Y-74515114D01*
X186625939Y-74515114D02*
X186625939Y-74657971D01*
X186625939Y-74657971D02*
X185911653Y-74800828D01*
X187268795Y-75300828D02*
X187268795Y-74300828D01*
X187268795Y-74586542D02*
X187340224Y-74443685D01*
X187340224Y-74443685D02*
X187411653Y-74372257D01*
X187411653Y-74372257D02*
X187554510Y-74300828D01*
X187554510Y-74300828D02*
X187697367Y-74300828D01*
X188054509Y-74300828D02*
X188411652Y-75300828D01*
X188411652Y-75300828D02*
X188768795Y-74300828D01*
X189554509Y-75300828D02*
X189411652Y-75229400D01*
X189411652Y-75229400D02*
X189340223Y-75157971D01*
X189340223Y-75157971D02*
X189268795Y-75015114D01*
X189268795Y-75015114D02*
X189268795Y-74586542D01*
X189268795Y-74586542D02*
X189340223Y-74443685D01*
X189340223Y-74443685D02*
X189411652Y-74372257D01*
X189411652Y-74372257D02*
X189554509Y-74300828D01*
X189554509Y-74300828D02*
X189768795Y-74300828D01*
X189768795Y-74300828D02*
X189911652Y-74372257D01*
X189911652Y-74372257D02*
X189983081Y-74443685D01*
X189983081Y-74443685D02*
X190054509Y-74586542D01*
X190054509Y-74586542D02*
X190054509Y-75015114D01*
X190054509Y-75015114D02*
X189983081Y-75157971D01*
X189983081Y-75157971D02*
X189911652Y-75229400D01*
X189911652Y-75229400D02*
X189768795Y-75300828D01*
X189768795Y-75300828D02*
X189554509Y-75300828D01*
X191840223Y-75300828D02*
X191840223Y-73800828D01*
X191840223Y-73800828D02*
X192411652Y-73800828D01*
X192411652Y-73800828D02*
X192554509Y-73872257D01*
X192554509Y-73872257D02*
X192625938Y-73943685D01*
X192625938Y-73943685D02*
X192697366Y-74086542D01*
X192697366Y-74086542D02*
X192697366Y-74300828D01*
X192697366Y-74300828D02*
X192625938Y-74443685D01*
X192625938Y-74443685D02*
X192554509Y-74515114D01*
X192554509Y-74515114D02*
X192411652Y-74586542D01*
X192411652Y-74586542D02*
X191840223Y-74586542D01*
X193554509Y-75300828D02*
X193411652Y-75229400D01*
X193411652Y-75229400D02*
X193340223Y-75157971D01*
X193340223Y-75157971D02*
X193268795Y-75015114D01*
X193268795Y-75015114D02*
X193268795Y-74586542D01*
X193268795Y-74586542D02*
X193340223Y-74443685D01*
X193340223Y-74443685D02*
X193411652Y-74372257D01*
X193411652Y-74372257D02*
X193554509Y-74300828D01*
X193554509Y-74300828D02*
X193768795Y-74300828D01*
X193768795Y-74300828D02*
X193911652Y-74372257D01*
X193911652Y-74372257D02*
X193983081Y-74443685D01*
X193983081Y-74443685D02*
X194054509Y-74586542D01*
X194054509Y-74586542D02*
X194054509Y-75015114D01*
X194054509Y-75015114D02*
X193983081Y-75157971D01*
X193983081Y-75157971D02*
X193911652Y-75229400D01*
X193911652Y-75229400D02*
X193768795Y-75300828D01*
X193768795Y-75300828D02*
X193554509Y-75300828D01*
X194554509Y-74300828D02*
X194840224Y-75300828D01*
X194840224Y-75300828D02*
X195125938Y-74586542D01*
X195125938Y-74586542D02*
X195411652Y-75300828D01*
X195411652Y-75300828D02*
X195697366Y-74300828D01*
X196840224Y-75229400D02*
X196697367Y-75300828D01*
X196697367Y-75300828D02*
X196411653Y-75300828D01*
X196411653Y-75300828D02*
X196268795Y-75229400D01*
X196268795Y-75229400D02*
X196197367Y-75086542D01*
X196197367Y-75086542D02*
X196197367Y-74515114D01*
X196197367Y-74515114D02*
X196268795Y-74372257D01*
X196268795Y-74372257D02*
X196411653Y-74300828D01*
X196411653Y-74300828D02*
X196697367Y-74300828D01*
X196697367Y-74300828D02*
X196840224Y-74372257D01*
X196840224Y-74372257D02*
X196911653Y-74515114D01*
X196911653Y-74515114D02*
X196911653Y-74657971D01*
X196911653Y-74657971D02*
X196197367Y-74800828D01*
X197554509Y-75300828D02*
X197554509Y-74300828D01*
X197554509Y-74586542D02*
X197625938Y-74443685D01*
X197625938Y-74443685D02*
X197697367Y-74372257D01*
X197697367Y-74372257D02*
X197840224Y-74300828D01*
X197840224Y-74300828D02*
X197983081Y-74300828D01*
D11*
X215491466Y-104696115D02*
X215491466Y-103934211D01*
X215872419Y-104315163D02*
X215110514Y-104315163D01*
X215491466Y-102696115D02*
X215491466Y-101934211D01*
X138127580Y-99803884D02*
X139127580Y-99803884D01*
X138127580Y-100375312D02*
X138699009Y-99946741D01*
X139127580Y-100375312D02*
X138556152Y-99803884D01*
X138175200Y-101184836D02*
X138127580Y-101089598D01*
X138127580Y-101089598D02*
X138127580Y-100899122D01*
X138127580Y-100899122D02*
X138175200Y-100803884D01*
X138175200Y-100803884D02*
X138270438Y-100756265D01*
X138270438Y-100756265D02*
X138651390Y-100756265D01*
X138651390Y-100756265D02*
X138746628Y-100803884D01*
X138746628Y-100803884D02*
X138794247Y-100899122D01*
X138794247Y-100899122D02*
X138794247Y-101089598D01*
X138794247Y-101089598D02*
X138746628Y-101184836D01*
X138746628Y-101184836D02*
X138651390Y-101232455D01*
X138651390Y-101232455D02*
X138556152Y-101232455D01*
X138556152Y-101232455D02*
X138460914Y-100756265D01*
X138794247Y-101565789D02*
X138127580Y-101803884D01*
X138794247Y-102041979D02*
X138127580Y-101803884D01*
X138127580Y-101803884D02*
X137889485Y-101708646D01*
X137889485Y-101708646D02*
X137841866Y-101661027D01*
X137841866Y-101661027D02*
X137794247Y-101565789D01*
X138175200Y-103137218D02*
X138127580Y-103280075D01*
X138127580Y-103280075D02*
X138127580Y-103518170D01*
X138127580Y-103518170D02*
X138175200Y-103613408D01*
X138175200Y-103613408D02*
X138222819Y-103661027D01*
X138222819Y-103661027D02*
X138318057Y-103708646D01*
X138318057Y-103708646D02*
X138413295Y-103708646D01*
X138413295Y-103708646D02*
X138508533Y-103661027D01*
X138508533Y-103661027D02*
X138556152Y-103613408D01*
X138556152Y-103613408D02*
X138603771Y-103518170D01*
X138603771Y-103518170D02*
X138651390Y-103327694D01*
X138651390Y-103327694D02*
X138699009Y-103232456D01*
X138699009Y-103232456D02*
X138746628Y-103184837D01*
X138746628Y-103184837D02*
X138841866Y-103137218D01*
X138841866Y-103137218D02*
X138937104Y-103137218D01*
X138937104Y-103137218D02*
X139032342Y-103184837D01*
X139032342Y-103184837D02*
X139079961Y-103232456D01*
X139079961Y-103232456D02*
X139127580Y-103327694D01*
X139127580Y-103327694D02*
X139127580Y-103565789D01*
X139127580Y-103565789D02*
X139079961Y-103708646D01*
X138794247Y-104041980D02*
X138127580Y-104232456D01*
X138127580Y-104232456D02*
X138603771Y-104422932D01*
X138603771Y-104422932D02*
X138127580Y-104613408D01*
X138127580Y-104613408D02*
X138794247Y-104803884D01*
X138127580Y-105184837D02*
X138794247Y-105184837D01*
X139127580Y-105184837D02*
X139079961Y-105137218D01*
X139079961Y-105137218D02*
X139032342Y-105184837D01*
X139032342Y-105184837D02*
X139079961Y-105232456D01*
X139079961Y-105232456D02*
X139127580Y-105184837D01*
X139127580Y-105184837D02*
X139032342Y-105184837D01*
X138794247Y-105518170D02*
X138794247Y-105899122D01*
X139127580Y-105661027D02*
X138270438Y-105661027D01*
X138270438Y-105661027D02*
X138175200Y-105708646D01*
X138175200Y-105708646D02*
X138127580Y-105803884D01*
X138127580Y-105803884D02*
X138127580Y-105899122D01*
X138175200Y-106661027D02*
X138127580Y-106565789D01*
X138127580Y-106565789D02*
X138127580Y-106375313D01*
X138127580Y-106375313D02*
X138175200Y-106280075D01*
X138175200Y-106280075D02*
X138222819Y-106232456D01*
X138222819Y-106232456D02*
X138318057Y-106184837D01*
X138318057Y-106184837D02*
X138603771Y-106184837D01*
X138603771Y-106184837D02*
X138699009Y-106232456D01*
X138699009Y-106232456D02*
X138746628Y-106280075D01*
X138746628Y-106280075D02*
X138794247Y-106375313D01*
X138794247Y-106375313D02*
X138794247Y-106565789D01*
X138794247Y-106565789D02*
X138746628Y-106661027D01*
X138127580Y-107089599D02*
X139127580Y-107089599D01*
X138127580Y-107518170D02*
X138651390Y-107518170D01*
X138651390Y-107518170D02*
X138746628Y-107470551D01*
X138746628Y-107470551D02*
X138794247Y-107375313D01*
X138794247Y-107375313D02*
X138794247Y-107232456D01*
X138794247Y-107232456D02*
X138746628Y-107137218D01*
X138746628Y-107137218D02*
X138699009Y-107089599D01*
D10*
X156054510Y-73229400D02*
X157197368Y-73229400D01*
X156625939Y-73800828D02*
X156625939Y-72657971D01*
X159054510Y-73800828D02*
X159054510Y-72300828D01*
X159054510Y-72300828D02*
X159625939Y-72300828D01*
X159625939Y-72300828D02*
X159768796Y-72372257D01*
X159768796Y-72372257D02*
X159840225Y-72443685D01*
X159840225Y-72443685D02*
X159911653Y-72586542D01*
X159911653Y-72586542D02*
X159911653Y-72800828D01*
X159911653Y-72800828D02*
X159840225Y-72943685D01*
X159840225Y-72943685D02*
X159768796Y-73015114D01*
X159768796Y-73015114D02*
X159625939Y-73086542D01*
X159625939Y-73086542D02*
X159054510Y-73086542D01*
X160411653Y-72300828D02*
X160768796Y-73800828D01*
X160768796Y-73800828D02*
X161054510Y-72729400D01*
X161054510Y-72729400D02*
X161340225Y-73800828D01*
X161340225Y-73800828D02*
X161697368Y-72300828D01*
X162268796Y-73800828D02*
X162268796Y-72300828D01*
X162268796Y-72300828D02*
X162768796Y-73372257D01*
X162768796Y-73372257D02*
X163268796Y-72300828D01*
X163268796Y-72300828D02*
X163268796Y-73800828D01*
X165125939Y-73229400D02*
X166268797Y-73229400D01*
D12*
X211238095Y-65654819D02*
X211238095Y-64654819D01*
X211238095Y-65131009D02*
X211809523Y-65131009D01*
X211809523Y-65654819D02*
X211809523Y-64654819D01*
X212238095Y-64750057D02*
X212285714Y-64702438D01*
X212285714Y-64702438D02*
X212380952Y-64654819D01*
X212380952Y-64654819D02*
X212619047Y-64654819D01*
X212619047Y-64654819D02*
X212714285Y-64702438D01*
X212714285Y-64702438D02*
X212761904Y-64750057D01*
X212761904Y-64750057D02*
X212809523Y-64845295D01*
X212809523Y-64845295D02*
X212809523Y-64940533D01*
X212809523Y-64940533D02*
X212761904Y-65083390D01*
X212761904Y-65083390D02*
X212190476Y-65654819D01*
X212190476Y-65654819D02*
X212809523Y-65654819D01*
X141273629Y-65190353D02*
X141273629Y-64190353D01*
X141273629Y-64666543D02*
X141845057Y-64666543D01*
X141845057Y-65190353D02*
X141845057Y-64190353D01*
X142845057Y-65190353D02*
X142273629Y-65190353D01*
X142559343Y-65190353D02*
X142559343Y-64190353D01*
X142559343Y-64190353D02*
X142464105Y-64333210D01*
X142464105Y-64333210D02*
X142368867Y-64428448D01*
X142368867Y-64428448D02*
X142273629Y-64476067D01*
X168738095Y-84454819D02*
X168738095Y-85264342D01*
X168738095Y-85264342D02*
X168785714Y-85359580D01*
X168785714Y-85359580D02*
X168833333Y-85407200D01*
X168833333Y-85407200D02*
X168928571Y-85454819D01*
X168928571Y-85454819D02*
X169119047Y-85454819D01*
X169119047Y-85454819D02*
X169214285Y-85407200D01*
X169214285Y-85407200D02*
X169261904Y-85359580D01*
X169261904Y-85359580D02*
X169309523Y-85264342D01*
X169309523Y-85264342D02*
X169309523Y-84454819D01*
X170309523Y-85454819D02*
X169738095Y-85454819D01*
X170023809Y-85454819D02*
X170023809Y-84454819D01*
X170023809Y-84454819D02*
X169928571Y-84597676D01*
X169928571Y-84597676D02*
X169833333Y-84692914D01*
X169833333Y-84692914D02*
X169738095Y-84740533D01*
X192416276Y-81784019D02*
X192416276Y-82593542D01*
X192416276Y-82593542D02*
X192463895Y-82688780D01*
X192463895Y-82688780D02*
X192511514Y-82736400D01*
X192511514Y-82736400D02*
X192606752Y-82784019D01*
X192606752Y-82784019D02*
X192797228Y-82784019D01*
X192797228Y-82784019D02*
X192892466Y-82736400D01*
X192892466Y-82736400D02*
X192940085Y-82688780D01*
X192940085Y-82688780D02*
X192987704Y-82593542D01*
X192987704Y-82593542D02*
X192987704Y-81784019D01*
X193416276Y-82736400D02*
X193559133Y-82784019D01*
X193559133Y-82784019D02*
X193797228Y-82784019D01*
X193797228Y-82784019D02*
X193892466Y-82736400D01*
X193892466Y-82736400D02*
X193940085Y-82688780D01*
X193940085Y-82688780D02*
X193987704Y-82593542D01*
X193987704Y-82593542D02*
X193987704Y-82498304D01*
X193987704Y-82498304D02*
X193940085Y-82403066D01*
X193940085Y-82403066D02*
X193892466Y-82355447D01*
X193892466Y-82355447D02*
X193797228Y-82307828D01*
X193797228Y-82307828D02*
X193606752Y-82260209D01*
X193606752Y-82260209D02*
X193511514Y-82212590D01*
X193511514Y-82212590D02*
X193463895Y-82164971D01*
X193463895Y-82164971D02*
X193416276Y-82069733D01*
X193416276Y-82069733D02*
X193416276Y-81974495D01*
X193416276Y-81974495D02*
X193463895Y-81879257D01*
X193463895Y-81879257D02*
X193511514Y-81831638D01*
X193511514Y-81831638D02*
X193606752Y-81784019D01*
X193606752Y-81784019D02*
X193844847Y-81784019D01*
X193844847Y-81784019D02*
X193987704Y-81831638D01*
X194749609Y-82260209D02*
X194892466Y-82307828D01*
X194892466Y-82307828D02*
X194940085Y-82355447D01*
X194940085Y-82355447D02*
X194987704Y-82450685D01*
X194987704Y-82450685D02*
X194987704Y-82593542D01*
X194987704Y-82593542D02*
X194940085Y-82688780D01*
X194940085Y-82688780D02*
X194892466Y-82736400D01*
X194892466Y-82736400D02*
X194797228Y-82784019D01*
X194797228Y-82784019D02*
X194416276Y-82784019D01*
X194416276Y-82784019D02*
X194416276Y-81784019D01*
X194416276Y-81784019D02*
X194749609Y-81784019D01*
X194749609Y-81784019D02*
X194844847Y-81831638D01*
X194844847Y-81831638D02*
X194892466Y-81879257D01*
X194892466Y-81879257D02*
X194940085Y-81974495D01*
X194940085Y-81974495D02*
X194940085Y-82069733D01*
X194940085Y-82069733D02*
X194892466Y-82164971D01*
X194892466Y-82164971D02*
X194844847Y-82212590D01*
X194844847Y-82212590D02*
X194749609Y-82260209D01*
X194749609Y-82260209D02*
X194416276Y-82260209D01*
X196178181Y-82784019D02*
X196178181Y-81784019D01*
X196178181Y-82260209D02*
X196749609Y-82260209D01*
X196749609Y-82784019D02*
X196749609Y-81784019D01*
X197368657Y-82784019D02*
X197273419Y-82736400D01*
X197273419Y-82736400D02*
X197225800Y-82688780D01*
X197225800Y-82688780D02*
X197178181Y-82593542D01*
X197178181Y-82593542D02*
X197178181Y-82307828D01*
X197178181Y-82307828D02*
X197225800Y-82212590D01*
X197225800Y-82212590D02*
X197273419Y-82164971D01*
X197273419Y-82164971D02*
X197368657Y-82117352D01*
X197368657Y-82117352D02*
X197511514Y-82117352D01*
X197511514Y-82117352D02*
X197606752Y-82164971D01*
X197606752Y-82164971D02*
X197654371Y-82212590D01*
X197654371Y-82212590D02*
X197701990Y-82307828D01*
X197701990Y-82307828D02*
X197701990Y-82593542D01*
X197701990Y-82593542D02*
X197654371Y-82688780D01*
X197654371Y-82688780D02*
X197606752Y-82736400D01*
X197606752Y-82736400D02*
X197511514Y-82784019D01*
X197511514Y-82784019D02*
X197368657Y-82784019D01*
X198082943Y-82736400D02*
X198178181Y-82784019D01*
X198178181Y-82784019D02*
X198368657Y-82784019D01*
X198368657Y-82784019D02*
X198463895Y-82736400D01*
X198463895Y-82736400D02*
X198511514Y-82641161D01*
X198511514Y-82641161D02*
X198511514Y-82593542D01*
X198511514Y-82593542D02*
X198463895Y-82498304D01*
X198463895Y-82498304D02*
X198368657Y-82450685D01*
X198368657Y-82450685D02*
X198225800Y-82450685D01*
X198225800Y-82450685D02*
X198130562Y-82403066D01*
X198130562Y-82403066D02*
X198082943Y-82307828D01*
X198082943Y-82307828D02*
X198082943Y-82260209D01*
X198082943Y-82260209D02*
X198130562Y-82164971D01*
X198130562Y-82164971D02*
X198225800Y-82117352D01*
X198225800Y-82117352D02*
X198368657Y-82117352D01*
X198368657Y-82117352D02*
X198463895Y-82164971D01*
X198797229Y-82117352D02*
X199178181Y-82117352D01*
X198940086Y-81784019D02*
X198940086Y-82641161D01*
X198940086Y-82641161D02*
X198987705Y-82736400D01*
X198987705Y-82736400D02*
X199082943Y-82784019D01*
X199082943Y-82784019D02*
X199178181Y-82784019D01*
X203384819Y-86080304D02*
X204194342Y-86080304D01*
X204194342Y-86080304D02*
X204289580Y-86032685D01*
X204289580Y-86032685D02*
X204337200Y-85985066D01*
X204337200Y-85985066D02*
X204384819Y-85889828D01*
X204384819Y-85889828D02*
X204384819Y-85699352D01*
X204384819Y-85699352D02*
X204337200Y-85604114D01*
X204337200Y-85604114D02*
X204289580Y-85556495D01*
X204289580Y-85556495D02*
X204194342Y-85508876D01*
X204194342Y-85508876D02*
X203384819Y-85508876D01*
X204337200Y-85080304D02*
X204384819Y-84937447D01*
X204384819Y-84937447D02*
X204384819Y-84699352D01*
X204384819Y-84699352D02*
X204337200Y-84604114D01*
X204337200Y-84604114D02*
X204289580Y-84556495D01*
X204289580Y-84556495D02*
X204194342Y-84508876D01*
X204194342Y-84508876D02*
X204099104Y-84508876D01*
X204099104Y-84508876D02*
X204003866Y-84556495D01*
X204003866Y-84556495D02*
X203956247Y-84604114D01*
X203956247Y-84604114D02*
X203908628Y-84699352D01*
X203908628Y-84699352D02*
X203861009Y-84889828D01*
X203861009Y-84889828D02*
X203813390Y-84985066D01*
X203813390Y-84985066D02*
X203765771Y-85032685D01*
X203765771Y-85032685D02*
X203670533Y-85080304D01*
X203670533Y-85080304D02*
X203575295Y-85080304D01*
X203575295Y-85080304D02*
X203480057Y-85032685D01*
X203480057Y-85032685D02*
X203432438Y-84985066D01*
X203432438Y-84985066D02*
X203384819Y-84889828D01*
X203384819Y-84889828D02*
X203384819Y-84651733D01*
X203384819Y-84651733D02*
X203432438Y-84508876D01*
X203861009Y-83746971D02*
X203908628Y-83604114D01*
X203908628Y-83604114D02*
X203956247Y-83556495D01*
X203956247Y-83556495D02*
X204051485Y-83508876D01*
X204051485Y-83508876D02*
X204194342Y-83508876D01*
X204194342Y-83508876D02*
X204289580Y-83556495D01*
X204289580Y-83556495D02*
X204337200Y-83604114D01*
X204337200Y-83604114D02*
X204384819Y-83699352D01*
X204384819Y-83699352D02*
X204384819Y-84080304D01*
X204384819Y-84080304D02*
X203384819Y-84080304D01*
X203384819Y-84080304D02*
X203384819Y-83746971D01*
X203384819Y-83746971D02*
X203432438Y-83651733D01*
X203432438Y-83651733D02*
X203480057Y-83604114D01*
X203480057Y-83604114D02*
X203575295Y-83556495D01*
X203575295Y-83556495D02*
X203670533Y-83556495D01*
X203670533Y-83556495D02*
X203765771Y-83604114D01*
X203765771Y-83604114D02*
X203813390Y-83651733D01*
X203813390Y-83651733D02*
X203861009Y-83746971D01*
X203861009Y-83746971D02*
X203861009Y-84080304D01*
X150010952Y-85273219D02*
X150010952Y-84273219D01*
X150010952Y-84273219D02*
X150344285Y-84987504D01*
X150344285Y-84987504D02*
X150677618Y-84273219D01*
X150677618Y-84273219D02*
X150677618Y-85273219D01*
X151153809Y-85273219D02*
X151153809Y-84606552D01*
X151153809Y-84273219D02*
X151106190Y-84320838D01*
X151106190Y-84320838D02*
X151153809Y-84368457D01*
X151153809Y-84368457D02*
X151201428Y-84320838D01*
X151201428Y-84320838D02*
X151153809Y-84273219D01*
X151153809Y-84273219D02*
X151153809Y-84368457D01*
X152058570Y-85225600D02*
X151963332Y-85273219D01*
X151963332Y-85273219D02*
X151772856Y-85273219D01*
X151772856Y-85273219D02*
X151677618Y-85225600D01*
X151677618Y-85225600D02*
X151629999Y-85177980D01*
X151629999Y-85177980D02*
X151582380Y-85082742D01*
X151582380Y-85082742D02*
X151582380Y-84797028D01*
X151582380Y-84797028D02*
X151629999Y-84701790D01*
X151629999Y-84701790D02*
X151677618Y-84654171D01*
X151677618Y-84654171D02*
X151772856Y-84606552D01*
X151772856Y-84606552D02*
X151963332Y-84606552D01*
X151963332Y-84606552D02*
X152058570Y-84654171D01*
X152487142Y-85273219D02*
X152487142Y-84606552D01*
X152487142Y-84797028D02*
X152534761Y-84701790D01*
X152534761Y-84701790D02*
X152582380Y-84654171D01*
X152582380Y-84654171D02*
X152677618Y-84606552D01*
X152677618Y-84606552D02*
X152772856Y-84606552D01*
X153249047Y-85273219D02*
X153153809Y-85225600D01*
X153153809Y-85225600D02*
X153106190Y-85177980D01*
X153106190Y-85177980D02*
X153058571Y-85082742D01*
X153058571Y-85082742D02*
X153058571Y-84797028D01*
X153058571Y-84797028D02*
X153106190Y-84701790D01*
X153106190Y-84701790D02*
X153153809Y-84654171D01*
X153153809Y-84654171D02*
X153249047Y-84606552D01*
X153249047Y-84606552D02*
X153391904Y-84606552D01*
X153391904Y-84606552D02*
X153487142Y-84654171D01*
X153487142Y-84654171D02*
X153534761Y-84701790D01*
X153534761Y-84701790D02*
X153582380Y-84797028D01*
X153582380Y-84797028D02*
X153582380Y-85082742D01*
X153582380Y-85082742D02*
X153534761Y-85177980D01*
X153534761Y-85177980D02*
X153487142Y-85225600D01*
X153487142Y-85225600D02*
X153391904Y-85273219D01*
X153391904Y-85273219D02*
X153249047Y-85273219D01*
X154725238Y-85225600D02*
X154868095Y-85273219D01*
X154868095Y-85273219D02*
X155106190Y-85273219D01*
X155106190Y-85273219D02*
X155201428Y-85225600D01*
X155201428Y-85225600D02*
X155249047Y-85177980D01*
X155249047Y-85177980D02*
X155296666Y-85082742D01*
X155296666Y-85082742D02*
X155296666Y-84987504D01*
X155296666Y-84987504D02*
X155249047Y-84892266D01*
X155249047Y-84892266D02*
X155201428Y-84844647D01*
X155201428Y-84844647D02*
X155106190Y-84797028D01*
X155106190Y-84797028D02*
X154915714Y-84749409D01*
X154915714Y-84749409D02*
X154820476Y-84701790D01*
X154820476Y-84701790D02*
X154772857Y-84654171D01*
X154772857Y-84654171D02*
X154725238Y-84558933D01*
X154725238Y-84558933D02*
X154725238Y-84463695D01*
X154725238Y-84463695D02*
X154772857Y-84368457D01*
X154772857Y-84368457D02*
X154820476Y-84320838D01*
X154820476Y-84320838D02*
X154915714Y-84273219D01*
X154915714Y-84273219D02*
X155153809Y-84273219D01*
X155153809Y-84273219D02*
X155296666Y-84320838D01*
X155725238Y-85273219D02*
X155725238Y-84273219D01*
X155725238Y-84273219D02*
X155963333Y-84273219D01*
X155963333Y-84273219D02*
X156106190Y-84320838D01*
X156106190Y-84320838D02*
X156201428Y-84416076D01*
X156201428Y-84416076D02*
X156249047Y-84511314D01*
X156249047Y-84511314D02*
X156296666Y-84701790D01*
X156296666Y-84701790D02*
X156296666Y-84844647D01*
X156296666Y-84844647D02*
X156249047Y-85035123D01*
X156249047Y-85035123D02*
X156201428Y-85130361D01*
X156201428Y-85130361D02*
X156106190Y-85225600D01*
X156106190Y-85225600D02*
X155963333Y-85273219D01*
X155963333Y-85273219D02*
X155725238Y-85273219D01*
X178846033Y-87901733D02*
X178146033Y-87901733D01*
X178146033Y-87901733D02*
X178646033Y-87668400D01*
X178646033Y-87668400D02*
X178146033Y-87435066D01*
X178146033Y-87435066D02*
X178846033Y-87435066D01*
X178846033Y-87101733D02*
X178146033Y-87101733D01*
X178846033Y-86768400D02*
X178146033Y-86768400D01*
X178146033Y-86768400D02*
X178646033Y-86535067D01*
X178646033Y-86535067D02*
X178146033Y-86301733D01*
X178146033Y-86301733D02*
X178846033Y-86301733D01*
X178146033Y-86035067D02*
X178846033Y-85568400D01*
X178146033Y-85568400D02*
X178846033Y-86035067D01*
X178846033Y-84901733D02*
X178512700Y-85135066D01*
X178846033Y-85301733D02*
X178146033Y-85301733D01*
X178146033Y-85301733D02*
X178146033Y-85035066D01*
X178146033Y-85035066D02*
X178179366Y-84968400D01*
X178179366Y-84968400D02*
X178212700Y-84935066D01*
X178212700Y-84935066D02*
X178279366Y-84901733D01*
X178279366Y-84901733D02*
X178379366Y-84901733D01*
X178379366Y-84901733D02*
X178446033Y-84935066D01*
X178446033Y-84935066D02*
X178479366Y-84968400D01*
X178479366Y-84968400D02*
X178512700Y-85035066D01*
X178512700Y-85035066D02*
X178512700Y-85301733D01*
X178146033Y-84701733D02*
X178146033Y-84301733D01*
X178846033Y-84501733D02*
X178146033Y-84501733D01*
X178846033Y-83701733D02*
X178846033Y-84101733D01*
X178846033Y-83901733D02*
X178146033Y-83901733D01*
X178146033Y-83901733D02*
X178246033Y-83968400D01*
X178246033Y-83968400D02*
X178312700Y-84035067D01*
X178312700Y-84035067D02*
X178346033Y-84101733D01*
X178146033Y-83268400D02*
X178146033Y-83201733D01*
X178146033Y-83201733D02*
X178179366Y-83135066D01*
X178179366Y-83135066D02*
X178212700Y-83101733D01*
X178212700Y-83101733D02*
X178279366Y-83068400D01*
X178279366Y-83068400D02*
X178412700Y-83035066D01*
X178412700Y-83035066D02*
X178579366Y-83035066D01*
X178579366Y-83035066D02*
X178712700Y-83068400D01*
X178712700Y-83068400D02*
X178779366Y-83101733D01*
X178779366Y-83101733D02*
X178812700Y-83135066D01*
X178812700Y-83135066D02*
X178846033Y-83201733D01*
X178846033Y-83201733D02*
X178846033Y-83268400D01*
X178846033Y-83268400D02*
X178812700Y-83335066D01*
X178812700Y-83335066D02*
X178779366Y-83368400D01*
X178779366Y-83368400D02*
X178712700Y-83401733D01*
X178712700Y-83401733D02*
X178579366Y-83435066D01*
X178579366Y-83435066D02*
X178412700Y-83435066D01*
X178412700Y-83435066D02*
X178279366Y-83401733D01*
X178279366Y-83401733D02*
X178212700Y-83368400D01*
X178212700Y-83368400D02*
X178179366Y-83335066D01*
X178179366Y-83335066D02*
X178146033Y-83268400D01*
X178146033Y-82435066D02*
X178146033Y-82568399D01*
X178146033Y-82568399D02*
X178179366Y-82635066D01*
X178179366Y-82635066D02*
X178212700Y-82668399D01*
X178212700Y-82668399D02*
X178312700Y-82735066D01*
X178312700Y-82735066D02*
X178446033Y-82768399D01*
X178446033Y-82768399D02*
X178712700Y-82768399D01*
X178712700Y-82768399D02*
X178779366Y-82735066D01*
X178779366Y-82735066D02*
X178812700Y-82701733D01*
X178812700Y-82701733D02*
X178846033Y-82635066D01*
X178846033Y-82635066D02*
X178846033Y-82501733D01*
X178846033Y-82501733D02*
X178812700Y-82435066D01*
X178812700Y-82435066D02*
X178779366Y-82401733D01*
X178779366Y-82401733D02*
X178712700Y-82368399D01*
X178712700Y-82368399D02*
X178546033Y-82368399D01*
X178546033Y-82368399D02*
X178479366Y-82401733D01*
X178479366Y-82401733D02*
X178446033Y-82435066D01*
X178446033Y-82435066D02*
X178412700Y-82501733D01*
X178412700Y-82501733D02*
X178412700Y-82635066D01*
X178412700Y-82635066D02*
X178446033Y-82701733D01*
X178446033Y-82701733D02*
X178479366Y-82735066D01*
X178479366Y-82735066D02*
X178546033Y-82768399D01*
X178212700Y-82101732D02*
X178179366Y-82068399D01*
X178179366Y-82068399D02*
X178146033Y-82001732D01*
X178146033Y-82001732D02*
X178146033Y-81835066D01*
X178146033Y-81835066D02*
X178179366Y-81768399D01*
X178179366Y-81768399D02*
X178212700Y-81735066D01*
X178212700Y-81735066D02*
X178279366Y-81701732D01*
X178279366Y-81701732D02*
X178346033Y-81701732D01*
X178346033Y-81701732D02*
X178446033Y-81735066D01*
X178446033Y-81735066D02*
X178846033Y-82135066D01*
X178846033Y-82135066D02*
X178846033Y-81701732D01*
X180116033Y-86381733D02*
X179416033Y-86381733D01*
X179416033Y-86381733D02*
X179416033Y-86215066D01*
X179416033Y-86215066D02*
X179449366Y-86115066D01*
X179449366Y-86115066D02*
X179516033Y-86048400D01*
X179516033Y-86048400D02*
X179582700Y-86015066D01*
X179582700Y-86015066D02*
X179716033Y-85981733D01*
X179716033Y-85981733D02*
X179816033Y-85981733D01*
X179816033Y-85981733D02*
X179949366Y-86015066D01*
X179949366Y-86015066D02*
X180016033Y-86048400D01*
X180016033Y-86048400D02*
X180082700Y-86115066D01*
X180082700Y-86115066D02*
X180116033Y-86215066D01*
X180116033Y-86215066D02*
X180116033Y-86381733D01*
X179416033Y-85781733D02*
X180116033Y-85548400D01*
X180116033Y-85548400D02*
X179416033Y-85315066D01*
X179416033Y-84881733D02*
X179916033Y-84881733D01*
X179916033Y-84881733D02*
X180016033Y-84915066D01*
X180016033Y-84915066D02*
X180082700Y-84981733D01*
X180082700Y-84981733D02*
X180116033Y-85081733D01*
X180116033Y-85081733D02*
X180116033Y-85148400D01*
X179416033Y-84248400D02*
X179416033Y-84381733D01*
X179416033Y-84381733D02*
X179449366Y-84448400D01*
X179449366Y-84448400D02*
X179482700Y-84481733D01*
X179482700Y-84481733D02*
X179582700Y-84548400D01*
X179582700Y-84548400D02*
X179716033Y-84581733D01*
X179716033Y-84581733D02*
X179982700Y-84581733D01*
X179982700Y-84581733D02*
X180049366Y-84548400D01*
X180049366Y-84548400D02*
X180082700Y-84515067D01*
X180082700Y-84515067D02*
X180116033Y-84448400D01*
X180116033Y-84448400D02*
X180116033Y-84315067D01*
X180116033Y-84315067D02*
X180082700Y-84248400D01*
X180082700Y-84248400D02*
X180049366Y-84215067D01*
X180049366Y-84215067D02*
X179982700Y-84181733D01*
X179982700Y-84181733D02*
X179816033Y-84181733D01*
X179816033Y-84181733D02*
X179749366Y-84215067D01*
X179749366Y-84215067D02*
X179716033Y-84248400D01*
X179716033Y-84248400D02*
X179682700Y-84315067D01*
X179682700Y-84315067D02*
X179682700Y-84448400D01*
X179682700Y-84448400D02*
X179716033Y-84515067D01*
X179716033Y-84515067D02*
X179749366Y-84548400D01*
X179749366Y-84548400D02*
X179816033Y-84581733D01*
X179916033Y-83915066D02*
X179916033Y-83581733D01*
X180116033Y-83981733D02*
X179416033Y-83748400D01*
X179416033Y-83748400D02*
X180116033Y-83515066D01*
X189256009Y-90952143D02*
X189256009Y-90618810D01*
X189779819Y-90475953D02*
X189779819Y-90952143D01*
X189779819Y-90952143D02*
X188779819Y-90952143D01*
X188779819Y-90952143D02*
X188779819Y-90475953D01*
X189113152Y-90190238D02*
X189113152Y-89809286D01*
X188779819Y-90047381D02*
X189636961Y-90047381D01*
X189636961Y-90047381D02*
X189732200Y-89999762D01*
X189732200Y-89999762D02*
X189779819Y-89904524D01*
X189779819Y-89904524D02*
X189779819Y-89809286D01*
X189779819Y-89475952D02*
X188779819Y-89475952D01*
X189779819Y-89047381D02*
X189256009Y-89047381D01*
X189256009Y-89047381D02*
X189160771Y-89095000D01*
X189160771Y-89095000D02*
X189113152Y-89190238D01*
X189113152Y-89190238D02*
X189113152Y-89333095D01*
X189113152Y-89333095D02*
X189160771Y-89428333D01*
X189160771Y-89428333D02*
X189208390Y-89475952D01*
X189732200Y-88190238D02*
X189779819Y-88285476D01*
X189779819Y-88285476D02*
X189779819Y-88475952D01*
X189779819Y-88475952D02*
X189732200Y-88571190D01*
X189732200Y-88571190D02*
X189636961Y-88618809D01*
X189636961Y-88618809D02*
X189256009Y-88618809D01*
X189256009Y-88618809D02*
X189160771Y-88571190D01*
X189160771Y-88571190D02*
X189113152Y-88475952D01*
X189113152Y-88475952D02*
X189113152Y-88285476D01*
X189113152Y-88285476D02*
X189160771Y-88190238D01*
X189160771Y-88190238D02*
X189256009Y-88142619D01*
X189256009Y-88142619D02*
X189351247Y-88142619D01*
X189351247Y-88142619D02*
X189446485Y-88618809D01*
X189779819Y-87714047D02*
X189113152Y-87714047D01*
X189303628Y-87714047D02*
X189208390Y-87666428D01*
X189208390Y-87666428D02*
X189160771Y-87618809D01*
X189160771Y-87618809D02*
X189113152Y-87523571D01*
X189113152Y-87523571D02*
X189113152Y-87428333D01*
X189113152Y-87094999D02*
X189779819Y-87094999D01*
X189208390Y-87094999D02*
X189160771Y-87047380D01*
X189160771Y-87047380D02*
X189113152Y-86952142D01*
X189113152Y-86952142D02*
X189113152Y-86809285D01*
X189113152Y-86809285D02*
X189160771Y-86714047D01*
X189160771Y-86714047D02*
X189256009Y-86666428D01*
X189256009Y-86666428D02*
X189779819Y-86666428D01*
X189732200Y-85809285D02*
X189779819Y-85904523D01*
X189779819Y-85904523D02*
X189779819Y-86094999D01*
X189779819Y-86094999D02*
X189732200Y-86190237D01*
X189732200Y-86190237D02*
X189636961Y-86237856D01*
X189636961Y-86237856D02*
X189256009Y-86237856D01*
X189256009Y-86237856D02*
X189160771Y-86190237D01*
X189160771Y-86190237D02*
X189113152Y-86094999D01*
X189113152Y-86094999D02*
X189113152Y-85904523D01*
X189113152Y-85904523D02*
X189160771Y-85809285D01*
X189160771Y-85809285D02*
X189256009Y-85761666D01*
X189256009Y-85761666D02*
X189351247Y-85761666D01*
X189351247Y-85761666D02*
X189446485Y-86237856D01*
X189113152Y-85475951D02*
X189113152Y-85094999D01*
X188779819Y-85333094D02*
X189636961Y-85333094D01*
X189636961Y-85333094D02*
X189732200Y-85285475D01*
X189732200Y-85285475D02*
X189779819Y-85190237D01*
X189779819Y-85190237D02*
X189779819Y-85094999D01*
X211238095Y-127154819D02*
X211238095Y-126154819D01*
X211238095Y-126631009D02*
X211809523Y-126631009D01*
X211809523Y-127154819D02*
X211809523Y-126154819D01*
X212714285Y-126488152D02*
X212714285Y-127154819D01*
X212476190Y-126107200D02*
X212238095Y-126821485D01*
X212238095Y-126821485D02*
X212857142Y-126821485D01*
D11*
X165285714Y-121566390D02*
X165142857Y-121518771D01*
X165142857Y-121518771D02*
X165095238Y-121471152D01*
X165095238Y-121471152D02*
X165047619Y-121375914D01*
X165047619Y-121375914D02*
X165047619Y-121233057D01*
X165047619Y-121233057D02*
X165095238Y-121137819D01*
X165095238Y-121137819D02*
X165142857Y-121090200D01*
X165142857Y-121090200D02*
X165238095Y-121042580D01*
X165238095Y-121042580D02*
X165619047Y-121042580D01*
X165619047Y-121042580D02*
X165619047Y-122042580D01*
X165619047Y-122042580D02*
X165285714Y-122042580D01*
X165285714Y-122042580D02*
X165190476Y-121994961D01*
X165190476Y-121994961D02*
X165142857Y-121947342D01*
X165142857Y-121947342D02*
X165095238Y-121852104D01*
X165095238Y-121852104D02*
X165095238Y-121756866D01*
X165095238Y-121756866D02*
X165142857Y-121661628D01*
X165142857Y-121661628D02*
X165190476Y-121614009D01*
X165190476Y-121614009D02*
X165285714Y-121566390D01*
X165285714Y-121566390D02*
X165619047Y-121566390D01*
X164619047Y-121042580D02*
X164619047Y-122042580D01*
X164619047Y-122042580D02*
X164047619Y-121042580D01*
X164047619Y-121042580D02*
X164047619Y-122042580D01*
X163380952Y-122042580D02*
X163190476Y-122042580D01*
X163190476Y-122042580D02*
X163095238Y-121994961D01*
X163095238Y-121994961D02*
X163000000Y-121899723D01*
X163000000Y-121899723D02*
X162952381Y-121709247D01*
X162952381Y-121709247D02*
X162952381Y-121375914D01*
X162952381Y-121375914D02*
X163000000Y-121185438D01*
X163000000Y-121185438D02*
X163095238Y-121090200D01*
X163095238Y-121090200D02*
X163190476Y-121042580D01*
X163190476Y-121042580D02*
X163380952Y-121042580D01*
X163380952Y-121042580D02*
X163476190Y-121090200D01*
X163476190Y-121090200D02*
X163571428Y-121185438D01*
X163571428Y-121185438D02*
X163619047Y-121375914D01*
X163619047Y-121375914D02*
X163619047Y-121709247D01*
X163619047Y-121709247D02*
X163571428Y-121899723D01*
X163571428Y-121899723D02*
X163476190Y-121994961D01*
X163476190Y-121994961D02*
X163380952Y-122042580D01*
X162761905Y-120947342D02*
X162000000Y-120947342D01*
X161571428Y-122042580D02*
X161476190Y-122042580D01*
X161476190Y-122042580D02*
X161380952Y-121994961D01*
X161380952Y-121994961D02*
X161333333Y-121947342D01*
X161333333Y-121947342D02*
X161285714Y-121852104D01*
X161285714Y-121852104D02*
X161238095Y-121661628D01*
X161238095Y-121661628D02*
X161238095Y-121423533D01*
X161238095Y-121423533D02*
X161285714Y-121233057D01*
X161285714Y-121233057D02*
X161333333Y-121137819D01*
X161333333Y-121137819D02*
X161380952Y-121090200D01*
X161380952Y-121090200D02*
X161476190Y-121042580D01*
X161476190Y-121042580D02*
X161571428Y-121042580D01*
X161571428Y-121042580D02*
X161666666Y-121090200D01*
X161666666Y-121090200D02*
X161714285Y-121137819D01*
X161714285Y-121137819D02*
X161761904Y-121233057D01*
X161761904Y-121233057D02*
X161809523Y-121423533D01*
X161809523Y-121423533D02*
X161809523Y-121661628D01*
X161809523Y-121661628D02*
X161761904Y-121852104D01*
X161761904Y-121852104D02*
X161714285Y-121947342D01*
X161714285Y-121947342D02*
X161666666Y-121994961D01*
X161666666Y-121994961D02*
X161571428Y-122042580D01*
X160333333Y-122042580D02*
X160809523Y-122042580D01*
X160809523Y-122042580D02*
X160857142Y-121566390D01*
X160857142Y-121566390D02*
X160809523Y-121614009D01*
X160809523Y-121614009D02*
X160714285Y-121661628D01*
X160714285Y-121661628D02*
X160476190Y-121661628D01*
X160476190Y-121661628D02*
X160380952Y-121614009D01*
X160380952Y-121614009D02*
X160333333Y-121566390D01*
X160333333Y-121566390D02*
X160285714Y-121471152D01*
X160285714Y-121471152D02*
X160285714Y-121233057D01*
X160285714Y-121233057D02*
X160333333Y-121137819D01*
X160333333Y-121137819D02*
X160380952Y-121090200D01*
X160380952Y-121090200D02*
X160476190Y-121042580D01*
X160476190Y-121042580D02*
X160714285Y-121042580D01*
X160714285Y-121042580D02*
X160809523Y-121090200D01*
X160809523Y-121090200D02*
X160857142Y-121137819D01*
X159380952Y-122042580D02*
X159857142Y-122042580D01*
X159857142Y-122042580D02*
X159904761Y-121566390D01*
X159904761Y-121566390D02*
X159857142Y-121614009D01*
X159857142Y-121614009D02*
X159761904Y-121661628D01*
X159761904Y-121661628D02*
X159523809Y-121661628D01*
X159523809Y-121661628D02*
X159428571Y-121614009D01*
X159428571Y-121614009D02*
X159380952Y-121566390D01*
X159380952Y-121566390D02*
X159333333Y-121471152D01*
X159333333Y-121471152D02*
X159333333Y-121233057D01*
X159333333Y-121233057D02*
X159380952Y-121137819D01*
X159380952Y-121137819D02*
X159428571Y-121090200D01*
X159428571Y-121090200D02*
X159523809Y-121042580D01*
X159523809Y-121042580D02*
X159761904Y-121042580D01*
X159761904Y-121042580D02*
X159857142Y-121090200D01*
X159857142Y-121090200D02*
X159904761Y-121137819D01*
D12*
X190416666Y-72854819D02*
X190416666Y-73569104D01*
X190416666Y-73569104D02*
X190369047Y-73711961D01*
X190369047Y-73711961D02*
X190273809Y-73807200D01*
X190273809Y-73807200D02*
X190130952Y-73854819D01*
X190130952Y-73854819D02*
X190035714Y-73854819D01*
X190845238Y-72950057D02*
X190892857Y-72902438D01*
X190892857Y-72902438D02*
X190988095Y-72854819D01*
X190988095Y-72854819D02*
X191226190Y-72854819D01*
X191226190Y-72854819D02*
X191321428Y-72902438D01*
X191321428Y-72902438D02*
X191369047Y-72950057D01*
X191369047Y-72950057D02*
X191416666Y-73045295D01*
X191416666Y-73045295D02*
X191416666Y-73140533D01*
X191416666Y-73140533D02*
X191369047Y-73283390D01*
X191369047Y-73283390D02*
X190797619Y-73854819D01*
X190797619Y-73854819D02*
X191416666Y-73854819D01*
X160833333Y-98034819D02*
X160500000Y-97558628D01*
X160261905Y-98034819D02*
X160261905Y-97034819D01*
X160261905Y-97034819D02*
X160642857Y-97034819D01*
X160642857Y-97034819D02*
X160738095Y-97082438D01*
X160738095Y-97082438D02*
X160785714Y-97130057D01*
X160785714Y-97130057D02*
X160833333Y-97225295D01*
X160833333Y-97225295D02*
X160833333Y-97368152D01*
X160833333Y-97368152D02*
X160785714Y-97463390D01*
X160785714Y-97463390D02*
X160738095Y-97511009D01*
X160738095Y-97511009D02*
X160642857Y-97558628D01*
X160642857Y-97558628D02*
X160261905Y-97558628D01*
X161785714Y-98034819D02*
X161214286Y-98034819D01*
X161500000Y-98034819D02*
X161500000Y-97034819D01*
X161500000Y-97034819D02*
X161404762Y-97177676D01*
X161404762Y-97177676D02*
X161309524Y-97272914D01*
X161309524Y-97272914D02*
X161214286Y-97320533D01*
D11*
X196809523Y-121566390D02*
X196666666Y-121518771D01*
X196666666Y-121518771D02*
X196619047Y-121471152D01*
X196619047Y-121471152D02*
X196571428Y-121375914D01*
X196571428Y-121375914D02*
X196571428Y-121233057D01*
X196571428Y-121233057D02*
X196619047Y-121137819D01*
X196619047Y-121137819D02*
X196666666Y-121090200D01*
X196666666Y-121090200D02*
X196761904Y-121042580D01*
X196761904Y-121042580D02*
X197142856Y-121042580D01*
X197142856Y-121042580D02*
X197142856Y-122042580D01*
X197142856Y-122042580D02*
X196809523Y-122042580D01*
X196809523Y-122042580D02*
X196714285Y-121994961D01*
X196714285Y-121994961D02*
X196666666Y-121947342D01*
X196666666Y-121947342D02*
X196619047Y-121852104D01*
X196619047Y-121852104D02*
X196619047Y-121756866D01*
X196619047Y-121756866D02*
X196666666Y-121661628D01*
X196666666Y-121661628D02*
X196714285Y-121614009D01*
X196714285Y-121614009D02*
X196809523Y-121566390D01*
X196809523Y-121566390D02*
X197142856Y-121566390D01*
X196142856Y-121042580D02*
X196142856Y-122042580D01*
X196142856Y-122042580D02*
X195809523Y-121328295D01*
X195809523Y-121328295D02*
X195476190Y-122042580D01*
X195476190Y-122042580D02*
X195476190Y-121042580D01*
X194999999Y-121042580D02*
X194999999Y-122042580D01*
X194999999Y-122042580D02*
X194619047Y-122042580D01*
X194619047Y-122042580D02*
X194523809Y-121994961D01*
X194523809Y-121994961D02*
X194476190Y-121947342D01*
X194476190Y-121947342D02*
X194428571Y-121852104D01*
X194428571Y-121852104D02*
X194428571Y-121709247D01*
X194428571Y-121709247D02*
X194476190Y-121614009D01*
X194476190Y-121614009D02*
X194523809Y-121566390D01*
X194523809Y-121566390D02*
X194619047Y-121518771D01*
X194619047Y-121518771D02*
X194999999Y-121518771D01*
X194238095Y-120947342D02*
X193476190Y-120947342D01*
X193333332Y-122042580D02*
X192714285Y-122042580D01*
X192714285Y-122042580D02*
X193047618Y-121661628D01*
X193047618Y-121661628D02*
X192904761Y-121661628D01*
X192904761Y-121661628D02*
X192809523Y-121614009D01*
X192809523Y-121614009D02*
X192761904Y-121566390D01*
X192761904Y-121566390D02*
X192714285Y-121471152D01*
X192714285Y-121471152D02*
X192714285Y-121233057D01*
X192714285Y-121233057D02*
X192761904Y-121137819D01*
X192761904Y-121137819D02*
X192809523Y-121090200D01*
X192809523Y-121090200D02*
X192904761Y-121042580D01*
X192904761Y-121042580D02*
X193190475Y-121042580D01*
X193190475Y-121042580D02*
X193285713Y-121090200D01*
X193285713Y-121090200D02*
X193333332Y-121137819D01*
X192238094Y-121042580D02*
X192047618Y-121042580D01*
X192047618Y-121042580D02*
X191952380Y-121090200D01*
X191952380Y-121090200D02*
X191904761Y-121137819D01*
X191904761Y-121137819D02*
X191809523Y-121280676D01*
X191809523Y-121280676D02*
X191761904Y-121471152D01*
X191761904Y-121471152D02*
X191761904Y-121852104D01*
X191761904Y-121852104D02*
X191809523Y-121947342D01*
X191809523Y-121947342D02*
X191857142Y-121994961D01*
X191857142Y-121994961D02*
X191952380Y-122042580D01*
X191952380Y-122042580D02*
X192142856Y-122042580D01*
X192142856Y-122042580D02*
X192238094Y-121994961D01*
X192238094Y-121994961D02*
X192285713Y-121947342D01*
X192285713Y-121947342D02*
X192333332Y-121852104D01*
X192333332Y-121852104D02*
X192333332Y-121614009D01*
X192333332Y-121614009D02*
X192285713Y-121518771D01*
X192285713Y-121518771D02*
X192238094Y-121471152D01*
X192238094Y-121471152D02*
X192142856Y-121423533D01*
X192142856Y-121423533D02*
X191952380Y-121423533D01*
X191952380Y-121423533D02*
X191857142Y-121471152D01*
X191857142Y-121471152D02*
X191809523Y-121518771D01*
X191809523Y-121518771D02*
X191761904Y-121614009D01*
X191142856Y-122042580D02*
X191047618Y-122042580D01*
X191047618Y-122042580D02*
X190952380Y-121994961D01*
X190952380Y-121994961D02*
X190904761Y-121947342D01*
X190904761Y-121947342D02*
X190857142Y-121852104D01*
X190857142Y-121852104D02*
X190809523Y-121661628D01*
X190809523Y-121661628D02*
X190809523Y-121423533D01*
X190809523Y-121423533D02*
X190857142Y-121233057D01*
X190857142Y-121233057D02*
X190904761Y-121137819D01*
X190904761Y-121137819D02*
X190952380Y-121090200D01*
X190952380Y-121090200D02*
X191047618Y-121042580D01*
X191047618Y-121042580D02*
X191142856Y-121042580D01*
X191142856Y-121042580D02*
X191238094Y-121090200D01*
X191238094Y-121090200D02*
X191285713Y-121137819D01*
X191285713Y-121137819D02*
X191333332Y-121233057D01*
X191333332Y-121233057D02*
X191380951Y-121423533D01*
X191380951Y-121423533D02*
X191380951Y-121661628D01*
X191380951Y-121661628D02*
X191333332Y-121852104D01*
X191333332Y-121852104D02*
X191285713Y-121947342D01*
X191285713Y-121947342D02*
X191238094Y-121994961D01*
X191238094Y-121994961D02*
X191142856Y-122042580D01*
D12*
X160666666Y-71254819D02*
X160666666Y-71969104D01*
X160666666Y-71969104D02*
X160619047Y-72111961D01*
X160619047Y-72111961D02*
X160523809Y-72207200D01*
X160523809Y-72207200D02*
X160380952Y-72254819D01*
X160380952Y-72254819D02*
X160285714Y-72254819D01*
X161571428Y-71588152D02*
X161571428Y-72254819D01*
X161333333Y-71207200D02*
X161095238Y-71921485D01*
X161095238Y-71921485D02*
X161714285Y-71921485D01*
X141238095Y-127154819D02*
X141238095Y-126154819D01*
X141238095Y-126631009D02*
X141809523Y-126631009D01*
X141809523Y-127154819D02*
X141809523Y-126154819D01*
X142190476Y-126154819D02*
X142809523Y-126154819D01*
X142809523Y-126154819D02*
X142476190Y-126535771D01*
X142476190Y-126535771D02*
X142619047Y-126535771D01*
X142619047Y-126535771D02*
X142714285Y-126583390D01*
X142714285Y-126583390D02*
X142761904Y-126631009D01*
X142761904Y-126631009D02*
X142809523Y-126726247D01*
X142809523Y-126726247D02*
X142809523Y-126964342D01*
X142809523Y-126964342D02*
X142761904Y-127059580D01*
X142761904Y-127059580D02*
X142714285Y-127107200D01*
X142714285Y-127107200D02*
X142619047Y-127154819D01*
X142619047Y-127154819D02*
X142333333Y-127154819D01*
X142333333Y-127154819D02*
X142238095Y-127107200D01*
X142238095Y-127107200D02*
X142190476Y-127059580D01*
X204554819Y-103583333D02*
X205269104Y-103583333D01*
X205269104Y-103583333D02*
X205411961Y-103630952D01*
X205411961Y-103630952D02*
X205507200Y-103726190D01*
X205507200Y-103726190D02*
X205554819Y-103869047D01*
X205554819Y-103869047D02*
X205554819Y-103964285D01*
X205554819Y-102583333D02*
X205554819Y-103154761D01*
X205554819Y-102869047D02*
X204554819Y-102869047D01*
X204554819Y-102869047D02*
X204697676Y-102964285D01*
X204697676Y-102964285D02*
X204792914Y-103059523D01*
X204792914Y-103059523D02*
X204840533Y-103154761D01*
X177489832Y-110101009D02*
X177632689Y-110148628D01*
X177632689Y-110148628D02*
X177680308Y-110196247D01*
X177680308Y-110196247D02*
X177727927Y-110291485D01*
X177727927Y-110291485D02*
X177727927Y-110434342D01*
X177727927Y-110434342D02*
X177680308Y-110529580D01*
X177680308Y-110529580D02*
X177632689Y-110577200D01*
X177632689Y-110577200D02*
X177537451Y-110624819D01*
X177537451Y-110624819D02*
X177156499Y-110624819D01*
X177156499Y-110624819D02*
X177156499Y-109624819D01*
X177156499Y-109624819D02*
X177489832Y-109624819D01*
X177489832Y-109624819D02*
X177585070Y-109672438D01*
X177585070Y-109672438D02*
X177632689Y-109720057D01*
X177632689Y-109720057D02*
X177680308Y-109815295D01*
X177680308Y-109815295D02*
X177680308Y-109910533D01*
X177680308Y-109910533D02*
X177632689Y-110005771D01*
X177632689Y-110005771D02*
X177585070Y-110053390D01*
X177585070Y-110053390D02*
X177489832Y-110101009D01*
X177489832Y-110101009D02*
X177156499Y-110101009D01*
X178061261Y-109624819D02*
X178727927Y-109624819D01*
X178727927Y-109624819D02*
X178061261Y-110624819D01*
X178061261Y-110624819D02*
X178727927Y-110624819D01*
X179632689Y-110624819D02*
X179061261Y-110624819D01*
X179346975Y-110624819D02*
X179346975Y-109624819D01*
X179346975Y-109624819D02*
X179251737Y-109767676D01*
X179251737Y-109767676D02*
X179156499Y-109862914D01*
X179156499Y-109862914D02*
X179061261Y-109910533D01*
X146854819Y-103583333D02*
X147569104Y-103583333D01*
X147569104Y-103583333D02*
X147711961Y-103630952D01*
X147711961Y-103630952D02*
X147807200Y-103726190D01*
X147807200Y-103726190D02*
X147854819Y-103869047D01*
X147854819Y-103869047D02*
X147854819Y-103964285D01*
X146854819Y-103202380D02*
X146854819Y-102583333D01*
X146854819Y-102583333D02*
X147235771Y-102916666D01*
X147235771Y-102916666D02*
X147235771Y-102773809D01*
X147235771Y-102773809D02*
X147283390Y-102678571D01*
X147283390Y-102678571D02*
X147331009Y-102630952D01*
X147331009Y-102630952D02*
X147426247Y-102583333D01*
X147426247Y-102583333D02*
X147664342Y-102583333D01*
X147664342Y-102583333D02*
X147759580Y-102630952D01*
X147759580Y-102630952D02*
X147807200Y-102678571D01*
X147807200Y-102678571D02*
X147854819Y-102773809D01*
X147854819Y-102773809D02*
X147854819Y-103059523D01*
X147854819Y-103059523D02*
X147807200Y-103154761D01*
X147807200Y-103154761D02*
X147759580Y-103202380D01*
%TO.C,U1*%
X146780000Y-75928400D02*
X207740000Y-75928400D01*
X146780000Y-89898400D02*
X148050000Y-89898400D01*
X146780000Y-91168400D02*
X159480000Y-91168400D01*
X146780000Y-93708400D02*
X146780000Y-75928400D01*
X148050000Y-79738400D02*
X146780000Y-79738400D01*
X148050000Y-89898400D02*
X148050000Y-79738400D01*
X159480000Y-78468400D02*
X146780000Y-78468400D01*
X159480000Y-91168400D02*
X159480000Y-78468400D01*
X163290000Y-83548400D02*
X167100000Y-83548400D01*
X163290000Y-86088400D02*
X163290000Y-83548400D01*
X167100000Y-83548400D02*
X167100000Y-86088400D01*
X167100000Y-86088400D02*
X163290000Y-86088400D01*
X172180000Y-78468400D02*
X172180000Y-91168400D01*
X172180000Y-91168400D02*
X184880000Y-91168400D01*
X184880000Y-78468400D02*
X172180000Y-78468400D01*
X184880000Y-91168400D02*
X184880000Y-78468400D01*
X188740800Y-78979200D02*
X201440800Y-78979200D01*
X188740800Y-81519200D02*
X188740800Y-78979200D01*
X190510000Y-84920000D02*
X190510000Y-91170000D01*
X190510000Y-91170000D02*
X194510000Y-91170000D01*
X194510000Y-84920000D02*
X190510000Y-84920000D01*
X194510000Y-90920000D02*
X194510000Y-84920000D01*
X194510000Y-91170000D02*
X194510000Y-90920000D01*
X198900800Y-81519200D02*
X198900800Y-78979200D01*
X201440800Y-78979200D02*
X201440800Y-81519200D01*
X201440800Y-81519200D02*
X188740800Y-81519200D01*
X201440800Y-81519200D02*
X198900800Y-81519200D01*
X202660000Y-81008400D02*
X202660000Y-88628400D01*
X202660000Y-81008400D02*
X207740000Y-81008400D01*
X202660000Y-88628400D02*
X207740000Y-88628400D01*
X207740000Y-75928400D02*
X207740000Y-93708400D01*
X207740000Y-81008400D02*
X209010000Y-81008400D01*
X207740000Y-93708400D02*
X146780000Y-93708400D01*
X209010000Y-81008400D02*
X209010000Y-88628400D01*
X209010000Y-88628400D02*
X207740000Y-88628400D01*
X166093026Y-84818400D02*
G75*
G02*
X164296974Y-84818400I-898026J0D01*
G01*
X164296974Y-84818400D02*
G75*
G02*
X166093026Y-84818400I898026J0D01*
G01*
D11*
X174571000Y-85252400D02*
X174317000Y-85506400D01*
X174063000Y-85125400D01*
X174317000Y-84871400D01*
X174571000Y-85252400D01*
G36*
X174571000Y-85252400D02*
G01*
X174317000Y-85506400D01*
X174063000Y-85125400D01*
X174317000Y-84871400D01*
X174571000Y-85252400D01*
G37*
X174952000Y-84871400D02*
X174698000Y-85125400D01*
X174444000Y-84744400D01*
X174698000Y-84490400D01*
X174952000Y-84871400D01*
G36*
X174952000Y-84871400D02*
G01*
X174698000Y-85125400D01*
X174444000Y-84744400D01*
X174698000Y-84490400D01*
X174952000Y-84871400D01*
G37*
X175333000Y-84490400D02*
X175079000Y-84744400D01*
X174825000Y-84363400D01*
X175079000Y-84109400D01*
X175333000Y-84490400D01*
G36*
X175333000Y-84490400D02*
G01*
X175079000Y-84744400D01*
X174825000Y-84363400D01*
X175079000Y-84109400D01*
X175333000Y-84490400D01*
G37*
X175714000Y-84998400D02*
X175460000Y-85252400D01*
X175206000Y-84871400D01*
X175460000Y-84617400D01*
X175714000Y-84998400D01*
G36*
X175714000Y-84998400D02*
G01*
X175460000Y-85252400D01*
X175206000Y-84871400D01*
X175460000Y-84617400D01*
X175714000Y-84998400D01*
G37*
X176095000Y-84617400D02*
X175841000Y-84871400D01*
X175587000Y-84490400D01*
X175841000Y-84236400D01*
X176095000Y-84617400D01*
G36*
X176095000Y-84617400D02*
G01*
X175841000Y-84871400D01*
X175587000Y-84490400D01*
X175841000Y-84236400D01*
X176095000Y-84617400D01*
G37*
X176095000Y-85506400D02*
X175841000Y-85760400D01*
X175587000Y-85379400D01*
X175841000Y-85125400D01*
X176095000Y-85506400D01*
G36*
X176095000Y-85506400D02*
G01*
X175841000Y-85760400D01*
X175587000Y-85379400D01*
X175841000Y-85125400D01*
X176095000Y-85506400D01*
G37*
X176476000Y-85125400D02*
X176222000Y-85379400D01*
X175968000Y-84998400D01*
X176222000Y-84744400D01*
X176476000Y-85125400D01*
G36*
X176476000Y-85125400D02*
G01*
X176222000Y-85379400D01*
X175968000Y-84998400D01*
X176222000Y-84744400D01*
X176476000Y-85125400D01*
G37*
X176857000Y-85633400D02*
X176603000Y-85887400D01*
X176349000Y-85506400D01*
X176603000Y-85252400D01*
X176857000Y-85633400D01*
G36*
X176857000Y-85633400D02*
G01*
X176603000Y-85887400D01*
X176349000Y-85506400D01*
X176603000Y-85252400D01*
X176857000Y-85633400D01*
G37*
D13*
%TO.C,BNO_055*%
X154670000Y-112670000D02*
X154670000Y-115330000D01*
X167430000Y-112670000D02*
X154670000Y-112670000D01*
X167430000Y-112670000D02*
X167430000Y-115330000D01*
X167430000Y-115330000D02*
X154670000Y-115330000D01*
X168700000Y-112670000D02*
X170030000Y-112670000D01*
X170030000Y-112670000D02*
X170030000Y-114000000D01*
D11*
X176000000Y-131000000D02*
X149000000Y-131000000D01*
X149000000Y-111000000D01*
X176000000Y-111000000D01*
X176000000Y-131000000D01*
D13*
%TO.C,J2*%
X186890000Y-65690000D02*
X186890000Y-72310000D01*
X186890000Y-69000000D02*
X187900000Y-69000000D01*
X186890000Y-72310000D02*
X189150000Y-72310000D01*
X187900000Y-66400000D02*
X187900000Y-70700000D01*
X187900000Y-70700000D02*
X193600000Y-70700000D01*
X189150000Y-71310000D02*
X190350000Y-71310000D01*
X189150000Y-72310000D02*
X189150000Y-71310000D01*
X190350000Y-71310000D02*
X190350000Y-71910000D01*
X190350000Y-71910000D02*
X191150000Y-71910000D01*
X191150000Y-71310000D02*
X192350000Y-71310000D01*
X191150000Y-71910000D02*
X191150000Y-71310000D01*
X192350000Y-71310000D02*
X192350000Y-72310000D01*
X192350000Y-72310000D02*
X194610000Y-72310000D01*
X193600000Y-66400000D02*
X187900000Y-66400000D01*
X193600000Y-70700000D02*
X193600000Y-66400000D01*
X193660000Y-72610000D02*
X194910000Y-72610000D01*
X194610000Y-65690000D02*
X186890000Y-65690000D01*
X194610000Y-69000000D02*
X193600000Y-69000000D01*
X194610000Y-72310000D02*
X194610000Y-65690000D01*
X194910000Y-72610000D02*
X194910000Y-71360000D01*
D14*
%TO.C,G\u002A\u002A\u002A*%
G36*
X213689243Y-119502032D02*
G01*
X213743533Y-119511986D01*
X213793075Y-119530928D01*
X213837413Y-119558512D01*
X213876093Y-119594388D01*
X213908661Y-119638210D01*
X213934662Y-119689629D01*
X213953642Y-119748297D01*
X213953756Y-119748763D01*
X213959447Y-119771123D01*
X213963858Y-119785203D01*
X213967959Y-119792893D01*
X213972723Y-119796086D01*
X213978342Y-119796677D01*
X213988731Y-119797414D01*
X214006614Y-119799401D01*
X214029188Y-119802307D01*
X214046542Y-119804749D01*
X214139538Y-119822845D01*
X214234466Y-119850332D01*
X214331454Y-119887282D01*
X214430625Y-119933766D01*
X214532104Y-119989853D01*
X214636018Y-120055616D01*
X214742491Y-120131126D01*
X214851648Y-120216453D01*
X214963615Y-120311667D01*
X215003097Y-120346986D01*
X215026669Y-120368154D01*
X215049798Y-120388608D01*
X215070396Y-120406521D01*
X215086375Y-120420069D01*
X215091653Y-120424376D01*
X215124184Y-120452519D01*
X215153579Y-120482157D01*
X215177980Y-120511227D01*
X215195528Y-120537667D01*
X215198054Y-120542463D01*
X215208078Y-120565188D01*
X215213158Y-120585192D01*
X215212925Y-120604501D01*
X215207007Y-120625138D01*
X215195035Y-120649130D01*
X215176639Y-120678500D01*
X215171899Y-120685579D01*
X215144911Y-120721533D01*
X215111682Y-120759526D01*
X215075105Y-120796580D01*
X215038072Y-120829719D01*
X215012407Y-120849731D01*
X214954836Y-120886882D01*
X214893106Y-120917940D01*
X214826267Y-120943185D01*
X214753370Y-120962899D01*
X214673464Y-120977363D01*
X214585600Y-120986860D01*
X214539479Y-120989778D01*
X214487472Y-120992646D01*
X214444096Y-120995674D01*
X214407563Y-120999069D01*
X214376088Y-121003036D01*
X214347881Y-121007781D01*
X214321156Y-121013510D01*
X214310275Y-121016176D01*
X214250576Y-121035384D01*
X214197248Y-121061487D01*
X214149562Y-121095107D01*
X214106789Y-121136863D01*
X214068199Y-121187378D01*
X214033065Y-121247270D01*
X214028636Y-121255931D01*
X214009924Y-121293087D01*
X214031183Y-121314748D01*
X214047746Y-121330053D01*
X214066568Y-121344024D01*
X214089131Y-121357443D01*
X214116921Y-121371086D01*
X214151421Y-121385735D01*
X214194115Y-121402168D01*
X214206151Y-121406612D01*
X214238052Y-121418614D01*
X214268564Y-121430639D01*
X214295560Y-121441807D01*
X214316911Y-121451238D01*
X214330173Y-121457871D01*
X214370822Y-121486677D01*
X214403455Y-121521618D01*
X214427564Y-121561837D01*
X214442640Y-121606481D01*
X214448176Y-121654694D01*
X214448191Y-121656556D01*
X214443618Y-121690318D01*
X214429936Y-121719637D01*
X214407668Y-121743476D01*
X214402297Y-121747449D01*
X214391416Y-121754594D01*
X214381742Y-121759161D01*
X214370508Y-121761726D01*
X214354946Y-121762861D01*
X214332289Y-121763142D01*
X214326652Y-121763146D01*
X214293036Y-121761939D01*
X214266356Y-121757464D01*
X214244002Y-121748442D01*
X214223363Y-121733593D01*
X214201825Y-121711638D01*
X214187903Y-121695155D01*
X214160861Y-121663028D01*
X214137715Y-121638016D01*
X214116685Y-121618496D01*
X214095988Y-121602849D01*
X214073842Y-121589454D01*
X214068533Y-121586613D01*
X214039816Y-121573133D01*
X214004006Y-121558737D01*
X213964229Y-121544524D01*
X213923613Y-121531596D01*
X213885285Y-121521051D01*
X213875307Y-121518657D01*
X213851186Y-121513060D01*
X213835917Y-121509096D01*
X213828230Y-121505944D01*
X213826851Y-121502783D01*
X213830509Y-121498793D01*
X213836929Y-121493910D01*
X213850867Y-121483116D01*
X213856185Y-121477824D01*
X213852792Y-121477550D01*
X213840595Y-121481810D01*
X213835032Y-121483968D01*
X213765261Y-121516240D01*
X213701640Y-121555698D01*
X213644785Y-121601685D01*
X213595312Y-121653543D01*
X213553835Y-121710615D01*
X213520971Y-121772243D01*
X213497335Y-121837771D01*
X213494754Y-121847386D01*
X213483107Y-121912825D01*
X213480783Y-121980682D01*
X213487697Y-122048896D01*
X213503766Y-122115404D01*
X213505940Y-122122082D01*
X213519665Y-122158722D01*
X213536193Y-122195766D01*
X213554174Y-122230597D01*
X213572256Y-122260598D01*
X213589087Y-122283152D01*
X213589220Y-122283303D01*
X213606435Y-122300572D01*
X213624650Y-122313309D01*
X213646087Y-122322398D01*
X213672966Y-122328723D01*
X213707510Y-122333168D01*
X213716623Y-122334004D01*
X213742330Y-122336767D01*
X213765505Y-122340217D01*
X213783419Y-122343890D01*
X213792682Y-122346948D01*
X213809274Y-122361165D01*
X213820135Y-122382788D01*
X213824389Y-122410003D01*
X213824418Y-122412590D01*
X213821162Y-122437404D01*
X213810836Y-122457212D01*
X213792604Y-122472793D01*
X213765630Y-122484928D01*
X213739038Y-122492266D01*
X213713051Y-122496393D01*
X213680212Y-122499010D01*
X213643980Y-122500072D01*
X213607819Y-122499537D01*
X213575189Y-122497361D01*
X213554723Y-122494555D01*
X213511864Y-122483211D01*
X213473641Y-122465540D01*
X213439541Y-122440938D01*
X213409053Y-122408801D01*
X213381662Y-122368524D01*
X213356858Y-122319503D01*
X213334125Y-122261131D01*
X213320261Y-122218032D01*
X213305979Y-122172448D01*
X213292756Y-122135251D01*
X213279639Y-122104603D01*
X213265675Y-122078669D01*
X213249911Y-122055612D01*
X213231394Y-122033595D01*
X213216511Y-122018047D01*
X213180791Y-121985646D01*
X213146729Y-121962339D01*
X213112793Y-121947304D01*
X213077449Y-121939718D01*
X213069147Y-121938953D01*
X213038881Y-121938918D01*
X213008056Y-121943475D01*
X212975583Y-121953100D01*
X212940375Y-121968270D01*
X212901343Y-121989462D01*
X212857399Y-122017153D01*
X212807456Y-122051821D01*
X212800920Y-122056536D01*
X212745082Y-122096618D01*
X212696126Y-122130828D01*
X212652783Y-122159784D01*
X212613787Y-122184105D01*
X212577870Y-122204410D01*
X212543765Y-122221317D01*
X212510204Y-122235446D01*
X212475920Y-122247416D01*
X212439645Y-122257844D01*
X212400112Y-122267350D01*
X212356053Y-122276553D01*
X212346411Y-122278446D01*
X212309616Y-122285717D01*
X212282764Y-122291334D01*
X212265541Y-122295454D01*
X212257632Y-122298239D01*
X212258720Y-122299848D01*
X212268491Y-122300441D01*
X212286630Y-122300176D01*
X212304737Y-122299543D01*
X212324922Y-122298940D01*
X212353805Y-122298349D01*
X212389670Y-122297791D01*
X212430797Y-122297287D01*
X212475467Y-122296861D01*
X212521962Y-122296532D01*
X212557383Y-122296361D01*
X212608504Y-122296225D01*
X212650361Y-122296266D01*
X212684107Y-122296527D01*
X212710894Y-122297051D01*
X212731877Y-122297878D01*
X212748207Y-122299050D01*
X212761040Y-122300609D01*
X212771526Y-122302597D01*
X212778447Y-122304367D01*
X212813638Y-122315741D01*
X212841373Y-122328351D01*
X212864614Y-122343696D01*
X212877102Y-122354349D01*
X212899447Y-122379269D01*
X212914223Y-122405024D01*
X212921293Y-122430236D01*
X212920519Y-122453525D01*
X212911765Y-122473514D01*
X212894894Y-122488825D01*
X212890699Y-122491122D01*
X212886629Y-122492877D01*
X212881427Y-122494388D01*
X212874348Y-122495671D01*
X212864645Y-122496742D01*
X212851574Y-122497617D01*
X212834388Y-122498312D01*
X212812341Y-122498843D01*
X212784688Y-122499225D01*
X212750683Y-122499475D01*
X212709581Y-122499609D01*
X212660635Y-122499641D01*
X212603100Y-122499589D01*
X212536229Y-122499468D01*
X212502686Y-122499395D01*
X212438536Y-122499199D01*
X212375172Y-122498910D01*
X212313725Y-122498537D01*
X212255329Y-122498092D01*
X212201114Y-122497586D01*
X212152212Y-122497030D01*
X212109756Y-122496436D01*
X212074877Y-122495814D01*
X212048706Y-122495176D01*
X212039069Y-122494847D01*
X211962805Y-122490604D01*
X211894957Y-122483992D01*
X211833701Y-122474553D01*
X211777213Y-122461830D01*
X211723667Y-122445368D01*
X211671238Y-122424709D01*
X211618103Y-122399397D01*
X211583265Y-122380757D01*
X211528568Y-122350399D01*
X211465374Y-122353083D01*
X211405552Y-122353532D01*
X211352427Y-122349052D01*
X211303230Y-122339071D01*
X211255196Y-122323018D01*
X211205555Y-122300322D01*
X211202643Y-122298829D01*
X211147595Y-122270443D01*
X211020321Y-122286327D01*
X210900767Y-122300373D01*
X210789251Y-122311570D01*
X210683816Y-122320026D01*
X210582510Y-122325844D01*
X210483378Y-122329130D01*
X210384465Y-122329990D01*
X210283818Y-122328527D01*
X210252317Y-122327630D01*
X210140277Y-122322516D01*
X210036285Y-122314380D01*
X209938350Y-122302979D01*
X209844479Y-122288069D01*
X209752681Y-122269404D01*
X209725490Y-122263094D01*
X209605320Y-122230200D01*
X209493264Y-122190796D01*
X209389346Y-122144912D01*
X209293592Y-122092577D01*
X209206024Y-122033822D01*
X209126668Y-121968678D01*
X209055547Y-121897173D01*
X208992685Y-121819338D01*
X208938108Y-121735204D01*
X208891838Y-121644799D01*
X208853901Y-121548155D01*
X208824320Y-121445301D01*
X208803120Y-121336268D01*
X208790325Y-121221084D01*
X208785959Y-121099782D01*
X208785958Y-121097120D01*
X208786264Y-121053195D01*
X208787110Y-121012950D01*
X208788430Y-120977507D01*
X208790159Y-120947991D01*
X208792232Y-120925524D01*
X208794581Y-120911231D01*
X208797135Y-120906234D01*
X208799526Y-120910957D01*
X208801168Y-120923187D01*
X208801649Y-120936187D01*
X208803481Y-120981259D01*
X208808490Y-121033652D01*
X208816312Y-121090890D01*
X208826583Y-121150496D01*
X208838941Y-121209993D01*
X208846542Y-121241963D01*
X208877121Y-121345753D01*
X208915274Y-121442473D01*
X208960968Y-121532079D01*
X209014168Y-121614522D01*
X209074841Y-121689756D01*
X209142952Y-121757734D01*
X209218466Y-121818408D01*
X209301351Y-121871732D01*
X209307666Y-121875323D01*
X209391355Y-121917850D01*
X209481181Y-121954463D01*
X209577377Y-121985180D01*
X209680181Y-122010021D01*
X209789826Y-122029007D01*
X209906548Y-122042158D01*
X210030584Y-122049493D01*
X210162167Y-122051034D01*
X210301534Y-122046799D01*
X210448920Y-122036809D01*
X210604560Y-122021084D01*
X210768027Y-121999740D01*
X210791264Y-121996278D01*
X210821300Y-121991634D01*
X210856361Y-121986097D01*
X210894674Y-121979958D01*
X210934464Y-121973506D01*
X210973958Y-121967033D01*
X211011381Y-121960827D01*
X211044961Y-121955180D01*
X211072922Y-121950381D01*
X211093491Y-121946721D01*
X211101907Y-121945120D01*
X211118027Y-121941885D01*
X211121243Y-121771773D01*
X211122638Y-121707295D01*
X211124295Y-121650964D01*
X211126352Y-121600508D01*
X211128950Y-121553657D01*
X211132227Y-121508138D01*
X211136323Y-121461682D01*
X211141378Y-121412016D01*
X211145750Y-121372457D01*
X211166737Y-121220175D01*
X211194291Y-121075633D01*
X211228385Y-120938889D01*
X211268996Y-120810004D01*
X211316097Y-120689036D01*
X211369663Y-120576045D01*
X211429671Y-120471091D01*
X211496093Y-120374233D01*
X211568906Y-120285532D01*
X211632096Y-120220141D01*
X211699761Y-120160575D01*
X214126028Y-120160575D01*
X214127174Y-120189455D01*
X214135156Y-120217043D01*
X214149307Y-120240018D01*
X214154902Y-120245739D01*
X214178913Y-120260937D01*
X214207390Y-120268875D01*
X214236960Y-120269104D01*
X214264249Y-120261171D01*
X214265549Y-120260524D01*
X214291369Y-120241969D01*
X214310221Y-120217056D01*
X214318411Y-120196588D01*
X214321363Y-120167726D01*
X214315495Y-120140372D01*
X214302264Y-120115934D01*
X214283126Y-120095820D01*
X214259539Y-120081437D01*
X214232960Y-120074192D01*
X214204846Y-120075493D01*
X214195616Y-120077992D01*
X214173891Y-120088841D01*
X214153281Y-120105351D01*
X214137406Y-120124331D01*
X214132386Y-120133724D01*
X214126028Y-120160575D01*
X211699761Y-120160575D01*
X211719262Y-120143408D01*
X211811894Y-120075542D01*
X211909966Y-120016555D01*
X212013454Y-119966459D01*
X212122330Y-119925266D01*
X212236571Y-119892990D01*
X212344868Y-119871425D01*
X212372032Y-119867828D01*
X212403436Y-119865273D01*
X212440828Y-119863670D01*
X212485956Y-119862931D01*
X212513105Y-119862858D01*
X212548795Y-119863061D01*
X212580891Y-119863701D01*
X212611043Y-119864943D01*
X212640904Y-119866950D01*
X212672125Y-119869885D01*
X212706357Y-119873911D01*
X212745252Y-119879192D01*
X212790462Y-119885892D01*
X212843636Y-119894174D01*
X212866851Y-119897861D01*
X212933650Y-119907786D01*
X212992143Y-119914711D01*
X213044022Y-119918572D01*
X213090977Y-119919306D01*
X213134700Y-119916848D01*
X213176880Y-119911135D01*
X213219210Y-119902102D01*
X213263380Y-119889686D01*
X213287345Y-119881969D01*
X213292910Y-119882467D01*
X213297398Y-119889488D01*
X213301908Y-119904852D01*
X213302405Y-119906929D01*
X213314657Y-119951660D01*
X213329516Y-119994359D01*
X213346081Y-120032916D01*
X213363449Y-120065227D01*
X213380026Y-120088392D01*
X213395882Y-120106624D01*
X213380088Y-120067555D01*
X213359699Y-120008053D01*
X213345108Y-119945872D01*
X213336523Y-119883191D01*
X213334155Y-119822188D01*
X213338212Y-119765039D01*
X213346862Y-119721144D01*
X213366051Y-119667334D01*
X213392674Y-119620778D01*
X213426563Y-119581607D01*
X213467550Y-119549950D01*
X213515467Y-119525937D01*
X213570147Y-119509698D01*
X213630659Y-119501416D01*
X213689243Y-119502032D01*
G37*
D13*
%TO.C,R1*%
X154820000Y-100500000D02*
X155930000Y-100500000D01*
X155930000Y-98580000D02*
X155930000Y-102420000D01*
X155930000Y-102420000D02*
X166070000Y-102420000D01*
X166070000Y-98580000D02*
X155930000Y-98580000D01*
X166070000Y-102420000D02*
X166070000Y-98580000D01*
X167180000Y-100500000D02*
X166070000Y-100500000D01*
%TO.C,BMP_390*%
X183940000Y-112470000D02*
X183940000Y-115130000D01*
X201780000Y-112470000D02*
X183940000Y-112470000D01*
X201780000Y-112470000D02*
X201780000Y-115130000D01*
X201780000Y-115130000D02*
X183940000Y-115130000D01*
X204380000Y-113800000D02*
X204380000Y-115130000D01*
X204380000Y-115130000D02*
X203050000Y-115130000D01*
D11*
X206700000Y-131600000D02*
X181300000Y-131600000D01*
X181300000Y-110400000D01*
X206700000Y-110400000D01*
X206700000Y-131600000D01*
D13*
%TO.C,J4*%
X155890000Y-66690000D02*
X155890000Y-70710000D01*
X155890000Y-68190000D02*
X156890000Y-68190000D01*
X155890000Y-70710000D02*
X166110000Y-70710000D01*
X156390000Y-69000000D02*
X155890000Y-69000000D01*
X156390000Y-70210000D02*
X156390000Y-69000000D01*
X156890000Y-68190000D02*
X156890000Y-66690000D01*
X165110000Y-68190000D02*
X165110000Y-66690000D01*
X165610000Y-69000000D02*
X165610000Y-70210000D01*
X165610000Y-70210000D02*
X156390000Y-70210000D01*
X166110000Y-66690000D02*
X155890000Y-66690000D01*
X166110000Y-68190000D02*
X165110000Y-68190000D01*
X166110000Y-69000000D02*
X165610000Y-69000000D01*
X166110000Y-70710000D02*
X166110000Y-66690000D01*
X166410000Y-66390000D02*
X163910000Y-66390000D01*
X166410000Y-68890000D02*
X166410000Y-66390000D01*
%TO.C,J1*%
X205890000Y-106160000D02*
X205890000Y-107410000D01*
X205890000Y-107410000D02*
X207140000Y-107410000D01*
X206190000Y-99390000D02*
X206190000Y-101650000D01*
X206190000Y-101650000D02*
X207190000Y-101650000D01*
X206190000Y-104850000D02*
X206190000Y-107110000D01*
X206190000Y-107110000D02*
X212810000Y-107110000D01*
X206590000Y-102850000D02*
X206590000Y-103650000D01*
X206590000Y-103650000D02*
X207190000Y-103650000D01*
X207190000Y-101650000D02*
X207190000Y-102850000D01*
X207190000Y-102850000D02*
X206590000Y-102850000D01*
X207190000Y-103650000D02*
X207190000Y-104850000D01*
X207190000Y-104850000D02*
X206190000Y-104850000D01*
X207800000Y-100400000D02*
X207800000Y-106100000D01*
X207800000Y-106100000D02*
X212100000Y-106100000D01*
X209500000Y-99390000D02*
X209500000Y-100400000D01*
X209500000Y-107110000D02*
X209500000Y-106100000D01*
X212100000Y-100400000D02*
X207800000Y-100400000D01*
X212100000Y-106100000D02*
X212100000Y-100400000D01*
X212810000Y-99390000D02*
X206190000Y-99390000D01*
X212810000Y-107110000D02*
X212810000Y-99390000D01*
%TO.C,BZ1*%
X184770785Y-101500001D02*
G75*
G02*
X184770785Y-104500000I-6400000J-1499999D01*
G01*
X184600785Y-103000000D02*
G75*
G02*
X172140785Y-103000000I-6230000J0D01*
G01*
X172140785Y-103000000D02*
G75*
G02*
X184600785Y-103000000I6230000J0D01*
G01*
%TO.C,J3*%
X139690000Y-99390000D02*
X139690000Y-107110000D01*
X139690000Y-107110000D02*
X146310000Y-107110000D01*
X140400000Y-100400000D02*
X140400000Y-106100000D01*
X140400000Y-106100000D02*
X144700000Y-106100000D01*
X143000000Y-99390000D02*
X143000000Y-100400000D01*
X143000000Y-107110000D02*
X143000000Y-106100000D01*
X144700000Y-100400000D02*
X140400000Y-100400000D01*
X144700000Y-106100000D02*
X144700000Y-100400000D01*
X145310000Y-101650000D02*
X146310000Y-101650000D01*
X145310000Y-102850000D02*
X145310000Y-101650000D01*
X145310000Y-103650000D02*
X145910000Y-103650000D01*
X145310000Y-104850000D02*
X145310000Y-103650000D01*
X145910000Y-102850000D02*
X145310000Y-102850000D01*
X145910000Y-103650000D02*
X145910000Y-102850000D01*
X146310000Y-99390000D02*
X139690000Y-99390000D01*
X146310000Y-101650000D02*
X146310000Y-99390000D01*
X146310000Y-104850000D02*
X145310000Y-104850000D01*
X146310000Y-107110000D02*
X146310000Y-104850000D01*
X146610000Y-99090000D02*
X145360000Y-99090000D01*
X146610000Y-100340000D02*
X146610000Y-99090000D01*
%TD*%
D15*
X137000000Y-130500000D02*
X137035534Y-68535534D01*
X217000000Y-130500000D02*
G75*
G02*
X212000000Y-135500000I-5000000J0D01*
G01*
X212000000Y-135500000D02*
X142000000Y-135500000D01*
X142000000Y-135500000D02*
G75*
G02*
X137000000Y-130500000I0J5000000D01*
G01*
X142035534Y-63535534D02*
X212000000Y-63500000D01*
X217000000Y-68500000D02*
X217000000Y-130500000D01*
X137035534Y-68535534D02*
G75*
G02*
X142035534Y-63535534I4999966J34D01*
G01*
X212000000Y-63500000D02*
G75*
G02*
X217000000Y-68500000I0J-5000000D01*
G01*
M02*
