M48
; DRILL file {KiCad 8.0.5} date 2025-01-30T22:35:33-0600
; FORMAT={-:-/ absolute / inch / decimal}
; #@! TF.CreationDate,2025-01-30T22:35:33-06:00
; #@! TF.GenerationSoftware,Kicad,Pcbnew,8.0.5
; #@! TF.FileFunction,Plated,1,2,PTH
FMAT,2
INCH
; #@! TA.AperFunction,Plated,PTH,ComponentDrill
T1C0.0315
; #@! TA.AperFunction,Plated,PTH,ComponentDrill
T2C0.0374
; #@! TA.AperFunction,Plated,PTH,ComponentDrill
T3C0.0394
; #@! TA.AperFunction,Plated,PTH,ComponentDrill
T4C0.0433
; #@! TA.AperFunction,Plated,PTH,ComponentDrill
T5C0.0472
%
G90
G05
T1
X7.5394Y-3.3858
X7.5394Y-3.4646
X7.5394Y-3.5433
X7.6181Y-3.3858
X7.6181Y-3.4646
X7.6181Y-3.5433
X8.1Y-3.2893
X8.1Y-3.3893
T2
X5.6299Y-4.0157
X5.6299Y-4.1142
X6.2402Y-2.7165
X6.3386Y-2.7165
X6.437Y-2.7165
X7.4606Y-2.7165
X7.5591Y-2.7165
X8.248Y-4.0157
X8.248Y-4.1142
T3
X6.1417Y-4.4882
X6.2417Y-4.4882
X6.3417Y-4.4882
X6.4417Y-4.4882
X6.5417Y-4.4882
X6.6417Y-4.4882
X6.924Y-4.0551
X7.1209Y-4.0551
X7.2941Y-4.4803
X7.3941Y-4.4803
X7.4941Y-4.4803
X7.5941Y-4.4803
X7.6941Y-4.4803
X7.7941Y-4.4803
X7.8941Y-4.4803
X7.9941Y-4.4803
T4
X5.8287Y-3.0393
X5.8287Y-3.6393
X5.9287Y-3.0393
X5.9287Y-3.6393
X6.0287Y-3.0393
X6.0287Y-3.6393
X6.1287Y-3.0393
X6.1287Y-3.6393
X6.2287Y-3.0393
X6.2287Y-3.6393
X6.3287Y-3.0393
X6.3287Y-3.1393
X6.3287Y-3.2393
X6.3287Y-3.3393
X6.3287Y-3.4393
X6.3287Y-3.5393
X6.3287Y-3.6393
X6.4287Y-3.0393
X6.4287Y-3.6393
X6.5287Y-3.0393
X6.5287Y-3.6393
X6.6287Y-3.0393
X6.6287Y-3.6393
X6.7287Y-3.0393
X6.7287Y-3.6393
X6.8287Y-3.0393
X6.8287Y-3.6393
X6.9287Y-3.0393
X6.9287Y-3.6393
X7.0287Y-3.0393
X7.0287Y-3.6393
X7.1287Y-3.0393
X7.1287Y-3.6393
X7.2287Y-3.0393
X7.2287Y-3.6393
X7.3287Y-3.0393
X7.3287Y-3.6393
X7.4287Y-3.0393
X7.4287Y-3.6393
X7.4807Y-3.1594
X7.5287Y-3.0393
X7.5287Y-3.6393
X7.5807Y-3.1594
X7.6287Y-3.0393
X7.6287Y-3.6393
X7.6807Y-3.1594
X7.7287Y-3.0393
X7.7287Y-3.6393
X7.7807Y-3.1594
X7.8287Y-3.0393
X7.8287Y-3.6393
X7.8807Y-3.1594
X7.9287Y-3.0393
X7.9287Y-3.6393
X8.0287Y-3.0393
X8.0287Y-3.5393
X8.0287Y-3.6393
X8.1287Y-3.0393
X8.1287Y-3.6393
T5
X6.0386Y-3.9567
X6.6386Y-3.9567
M30
